/* XPM */
static char *_8342_9c28b4ca9522fe6d27ebf5b6ea5ac0b8d1baa810e83f40b54b08e2d7d084a03c[] = {
/* columns rows colors chars-per-pixel */
"32 32 218 2 ",
"   c #030006",
".  c #04020B",
"X  c #0A020F",
"o  c #14020E",
"O  c #020415",
"+  c #0C0C1A",
"@  c #060819",
"#  c #130413",
"$  c #190214",
"%  c #0D111F",
"&  c #1B131B",
"*  c #1E1C1D",
"=  c #351C1B",
"-  c #0C0C22",
";  c #050C26",
":  c #0D1329",
">  c #121324",
",  c #1C1B23",
"<  c #15192A",
"1  c #171829",
"2  c #1A1B31",
"3  c #151A36",
"4  c #2C1924",
"5  c #19222D",
"6  c #1D2133",
"7  c #18223A",
"8  c #24232B",
"9  c #28252C",
"0  c #37272D",
"q  c #212539",
"w  c #23283E",
"e  c #282937",
"r  c #392834",
"t  c #36343B",
"y  c #4E231D",
"u  c #58362E",
"i  c #442B34",
"p  c #48393B",
"a  c #673A34",
"s  c #3C423E",
"d  c #68463C",
"f  c #1E2841",
"g  c #252C43",
"h  c #2A2B46",
"j  c #2C3145",
"k  c #2D354E",
"l  c #333545",
"z  c #3E3D44",
"x  c #33354A",
"c  c #3C3C49",
"v  c #373746",
"b  c #2F3A51",
"n  c #3A3956",
"m  c #332E44",
"M  c #503A48",
"N  c #3F414F",
"B  c #3D4253",
"V  c #3C435C",
"C  c #454349",
"Z  c #57454B",
"A  c #4D4C53",
"S  c #4A495B",
"D  c #504E5C",
"F  c #4B5258",
"G  c #5C555C",
"H  c #53595D",
"J  c #5B5C5C",
"K  c #56545A",
"L  c #4B514D",
"P  c #654446",
"I  c #724946",
"U  c #6F584F",
"Y  c #73564B",
"T  c #634C55",
"R  c #635454",
"E  c #6D5D54",
"W  c #62575C",
"Q  c #645C5B",
"!  c #6B5D5A",
"~  c #685954",
"^  c #765B58",
"/  c #5C635F",
"(  c #64645C",
")  c #6D635C",
"_  c #6A6659",
"`  c #73645B",
"'  c #726D5E",
"]  c #7E6153",
"[  c #5B5B64",
"{  c #585963",
"}  c #4D546B",
"|  c #625E64",
" . c #6A5E63",
".. c #625E6B",
"X. c #705F67",
"o. c #5D6464",
"O. c #5E636B",
"+. c #5B686A",
"@. c #5B6870",
"#. c #646364",
"$. c #6B6664",
"%. c #6D6964",
"&. c #65646A",
"*. c #6A656B",
"=. c #64696B",
"-. c #6C6B6C",
";. c #656C64",
":. c #736462",
">. c #7A6563",
",. c #726C62",
"<. c #7C6C65",
"1. c #736C6A",
"2. c #7B6C6D",
"3. c #75676D",
"4. c #74736E",
"5. c #7A726C",
"6. c #646673",
"7. c #6C6673",
"8. c #646D74",
"9. c #6B6C73",
"0. c #6C6E79",
"q. c #726C72",
"w. c #726B7B",
"e. c #6C7273",
"r. c #6E747B",
"t. c #737375",
"y. c #7A7474",
"u. c #747B73",
"i. c #7C7B74",
"p. c #75737B",
"a. c #7B757B",
"s. c #757A7C",
"d. c #7B7C7B",
"f. c #69746E",
"g. c #815852",
"h. c #85665B",
"j. c #8A6B69",
"k. c #84736C",
"l. c #977267",
"z. c #856C74",
"x. c #837472",
"c. c #837C7B",
"v. c #887979",
"b. c #947B7C",
"n. c #987B75",
"m. c #956D6B",
"M. c #A27F7B",
"N. c #76827D",
"B. c #7C837B",
"V. c #7B8177",
"C. c #81837C",
"Z. c #89877F",
"A. c #978B7D",
"S. c #757C83",
"D. c #797A82",
"F. c #8B7980",
"G. c #7C8284",
"H. c #7D838C",
"J. c #828483",
"K. c #848A84",
"L. c #8B8C84",
"P. c #83858A",
"I. c #858A8B",
"U. c #898E8C",
"Y. c #988786",
"T. c #8C9186",
"R. c #8B938C",
"E. c #8A968B",
"W. c #91958D",
"Q. c #95978A",
"!. c #8A8D92",
"~. c #878C97",
"^. c #918E92",
"/. c #8E9193",
"(. c #8E9A97",
"). c #919494",
"_. c #959B94",
"`. c #9B9D96",
"'. c #919599",
"]. c #969C9A",
"[. c #9A9D9A",
"{. c #A58985",
"}. c #B49897",
"|. c #B7968F",
" X c #9CA39B",
".X c #99A195",
"XX c #A1A69E",
"oX c #B1A29B",
"OX c #999CA2",
"+X c #979CA0",
"@X c #9DA2A3",
"#X c #95A3A6",
"$X c #A4AAA4",
"%X c #A9AEA5",
"&X c #ABADAA",
"*X c #A6AAAB",
"=X c #B1A9A9",
"-X c #ACB2AB",
";X c #AAB0A4",
":X c #B2B3AC",
">X c #A8ACB3",
",X c #B1AFB1",
"<X c #AEB4B6",
"1X c #B5BBB3",
"2X c #B9BCB5",
"3X c #B4B8B8",
"4X c #C7B9B0",
"5X c #BDC3B7",
"6X c #B6BBC0",
"7X c #C9CECC",
"8X c #C5C8C6",
"9X c #D7D2CB",
"0X c #D5D6D7",
"qX c #D0CDD0",
"wX c #E0DACE",
"eX c #DFDDE2",
"rX c #DCE1E4",
"tX c #E7E6E8",
/* pixels */
"@.+.=.&.Q Y.4XY.A.Y.A.T.B.!.^.^.U.i.i.%.9.p.&.w.7.7.*.#.( ( ( _ ",
"@.O.=.y.W ~ oX9X9XwX9XwXtXeXqX8X7X`.B.-.| 0.D.w.7.*.*.&.( ( ( ( ",
"-./ Q y.<.E ' k.5.i.4.-.a.M e , 9 * C y.y.%.t.Q *.$.$.#.#.#.#.( ",
"/ $.) ) :.<.` ~ ) %.%.=.C . . X     & #.y.Q 5.x.,.$.%.$.%.&.*.*.",
"E ` ) ` ` >.:.i.$.-.9.t.9   # $ o $ $ M v.<.,.' ' %.,.%.*.*.7.7.",
"` E E ^ <.2.W  .-.#.&.*.9 & $ $ $ 0 4 i :.k.,.' ' ,.,.%.%.7.7.7.",
"E ` <.! ! q.3.p.9.&.3... .2.P M T z.F.z.x.x.) _ ,.,.%.%.*.*.7.7.",
") R :.$. .3.| | 7.-.w.W Y.}.z.m.j.j.F.z.>.2.:.2.,.-.%.*.*.*.*.*.",
"[ #.&.p.q...w.6.0.&.| :.j.^ I I I = ^ b.z...F.2.*.D.6.9.q.$.$.$.",
"&.0.S A S D B C t c t 4 >.n.y a a a j.|.M r M m S v M [ 0.%.) 5.",
"@.B g q l j 6 h e 9 p R n.|.g.l.l.Y n.F.M r - n h q v 8 J y.%.' ",
"V 7 b 7 w 2 2 1 e -.J ~ ^ {.M.m.l.j.|.:.T ..h 3 - w m l , *.-.( ",
"3 g k : - - O - H.G.&.| 0 :.v.P u ^ U T  ...~.S.w O 5 B 2 8 -.q.",
"f b ; ; O - O S.>X~.=.O.&.W 0 T ^ ^ u  .W K F.~.H.x O % N + M w.",
"k f O : - > D 7X~.S.S.r.[ &.C r i i M  .J J.N.r.#X#X6 % 2 x - S ",
"3 O : ; O + F.OX#XP.S.H.s.8.S.m 4 0 Z 3.u.e.E.N.N.#X'.2 @ 2 h 3 ",
"3 : < 1 + &.[.I.].I.s.H.).9.P.J p.G 4.a.J.d.`.U.K.R.<X8.5 7 j n ",
"k k j 7 H <X].d.U.K.p./.).d.K.t.4.%XG..XB.].R.K.W._.#X*XN B V S ",
"n V V l +X3X@XR.p.t.&.'.).F.d.R.( V. X/.!.$XK.W.E._.(.0XO.l k k ",
"g g < 8.@XR.].].d.e.H G./.I.t.J.E.K $X).].u.K.W.T..X.X2XG.@ 5 2 ",
"< - > 3X(.I.R.R.K.I.G.9.!.[.J.=.R.N.s.OXR.O.(.K.U..X X].>X, % 1 ",
"- @ S.6XK.V.K.B.o.].8Xs.S.U.).u.#.I.e.I.!.I.G.e.B.R.W._.8Xo.. , ",
"+ q <X'.K.;.B.u.s P.rX'.p.e.K.U.f.u.!.G.'.].e.#.K.K.T..X2X*X& A ",
"1 S.3X*X$X.X(.N.L +.8X*XU.-.1.C.d.J O.I.S.H.S.e.-XR.W.W.XXqXA -X",
", +X0X&X1X XXX.XI./.I.^.J.Q ;.4.y.t.&.[ 8.e.r.G.8X).E..XQ.1X8X9X",
"D 7.7X7X8X1X-X X$X'.).`.c.$.5.,.4.a.t.=.=.O.+.8.7X$XB.Z.Q.;X2XC.",
"'.5 J.-XXXXX-X5X2X&X,X&X2.Z ` ~ 5.d.d.q.7.6.e.G._. XV.B.T.`.2X$.",
"t   K.<X XZ.( / `.`.=X=XJ.>.j.<.:.%.&.#.[ [ 8.H.+.K.V.B.L.L.5XL.",
". A 0X1X.XW.B.u.%.-.3.2.A.k.Y Y ' ! W G K K [ +./ N.B.B.T.Q.5X;X",
"  p.0X&X;X(.Z.C.1.c.2.2.A.n.Y ^ <.:.*.1.&.{ H F / ;.B.B.Q.;X5X8X",
"N U.0X&X;XQ.B.V.3.i.b.m.b.n.h.h.E E 2.F.0.[ / V H +.B.E..X5X1X5X",
"8 t.tX<X.X XQ.u.L.c.Y.{.F.A.h.h.U ) v.^.t.o.+./ +.N.K..X.X5XXXT."
};
