/* XPM */
static char *_1967_2123adad9d7b414dd9988ba4da82e4404475d35d78030d26e3c9076e26f04fe2[] = {
/* columns rows colors chars-per-pixel */
"64 64 238 2 ",
"   c #01000D",
".  c #09030C",
"X  c #13030E",
"o  c #010215",
"O  c #03041B",
"+  c #050A1C",
"@  c #0B0C1C",
"#  c #0A0716",
"$  c #130A16",
"%  c #0C121E",
"&  c #15131A",
"*  c #25141B",
"=  c #341012",
"-  c #020523",
";  c #050A24",
":  c #070B29",
">  c #090D2B",
",  c #0A0D24",
"<  c #0C1224",
"1  c #0D122C",
"2  c #0A1729",
"3  c #131422",
"4  c #1B1D2C",
"5  c #16172A",
"6  c #0C0F31",
"7  c #0D1231",
"8  c #141A33",
"9  c #151833",
"0  c #110E21",
"q  c #271C24",
"w  c #2A1E2A",
"e  c #1D232C",
"r  c #1D2334",
"t  c #1D253C",
"y  c #26252B",
"u  c #392829",
"i  c #242435",
"p  c #252A3C",
"a  c #272938",
"s  c #372D35",
"d  c #2C323A",
"f  c #37363A",
"g  c #3F302B",
"h  c #24271C",
"j  c #46171C",
"k  c #54292B",
"l  c #47383A",
"z  c #4F302F",
"x  c #663836",
"c  c #673232",
"v  c #522022",
"b  c #4D423B",
"n  c #70423A",
"m  c #242B42",
"M  c #2A2D44",
"N  c #262A45",
"B  c #2E3343",
"V  c #2D334A",
"C  c #283646",
"Z  c #333444",
"A  c #33354A",
"S  c #383A47",
"D  c #3A3D52",
"F  c #30334A",
"G  c #1E2341",
"H  c #443945",
"J  c #6B3C43",
"K  c #793D47",
"L  c #3B4345",
"P  c #3A4257",
"I  c #454A4D",
"U  c #46464A",
"Y  c #594749",
"T  c #4B4C53",
"R  c #474857",
"E  c #594B53",
"W  c #4D5253",
"Q  c #4B575B",
"!  c #545A5B",
"~  c #5B5C5D",
"^  c #575458",
"/  c #56514F",
"(  c #754747",
")  c #6A524E",
"_  c #754A55",
"`  c #645C5B",
"'  c #6B5B5C",
"]  c #695554",
"[  c #775957",
"{  c #684D4D",
"}  c #5B625E",
"|  c #57605D",
" . c #6A645E",
".. c #76635C",
"X. c #5B5B63",
"o. c #565963",
"O. c #625E64",
"+. c #675D65",
"@. c #725D64",
"#. c #5C6263",
"$. c #5E6369",
"%. c #5A6768",
"&. c #646363",
"*. c #6C6565",
"=. c #646A66",
"-. c #63646B",
";. c #6C666A",
":. c #656B6C",
">. c #6D6A6A",
",. c #6C6A66",
"<. c #716665",
"1. c #736A66",
"2. c #7A6C65",
"3. c #716669",
"4. c #736B6B",
"5. c #796D6C",
"6. c #7C6366",
"7. c #6B716D",
"8. c #65726D",
"9. c #73736E",
"0. c #7A756C",
"q. c #656C72",
"w. c #6C6C72",
"e. c #686977",
"r. c #736D72",
"t. c #796E72",
"y. c #6D7374",
"u. c #6C7677",
"i. c #737474",
"p. c #7B7473",
"a. c #747975",
"s. c #72757A",
"d. c #747A7B",
"f. c #7A7D7C",
"g. c #787877",
"h. c #884A3D",
"j. c #814849",
"k. c #865858",
"l. c #8F564E",
"z. c #836158",
"x. c #98655C",
"c. c #895C67",
"v. c #886867",
"b. c #976965",
"n. c #87786C",
"m. c #977569",
"M. c #887877",
"N. c #987A76",
"B. c #8C6E73",
"V. c #A57567",
"C. c #AE7870",
"Z. c #7B827D",
"A. c #778179",
"S. c #88857C",
"D. c #95857B",
"F. c #AD8478",
"G. c #C5907E",
"H. c #757C82",
"J. c #7A7D82",
"K. c #76798A",
"L. c #6C7682",
"P. c #817E85",
"I. c #907682",
"U. c #A67F80",
"Y. c #7D8382",
"T. c #7C8786",
"R. c #7D8A92",
"E. c #818484",
"W. c #848B85",
"Q. c #8A8D85",
"!. c #83858B",
"~. c #858B8A",
"^. c #898E8B",
"/. c #888483",
"(. c #968C89",
"). c #8C938C",
"_. c #8B9285",
"`. c #91958D",
"'. c #939A8D",
"]. c #9D948D",
"[. c #898D92",
"{. c #868B92",
"}. c #8D9392",
"|. c #8E9697",
" X c #929593",
".X c #949B94",
"XX c #999D95",
"oX c #949B9A",
"OX c #999E9A",
"+X c #959599",
"@X c #908F95",
"#X c #A3938B",
"$X c #B6958B",
"%X c #A59995",
"&X c #B28E8B",
"*X c #9CA296",
"=X c #9CA29B",
"-X c #97A09F",
";X c #A4AA9C",
":X c #A4A69D",
">X c #BBA39B",
",X c #979CA3",
"<X c #9CA3A3",
"1X c #9FA7AA",
"2X c #A3A5A3",
"3X c #A4AAA3",
"4X c #A8ACA7",
"5X c #ADB3A4",
"6X c #ACB3AA",
"7X c #ADB8AA",
"8X c #B4BAAC",
"9X c #B4B7AB",
"0X c #A9ACB3",
"qX c #B2B6B2",
"wX c #B6BBB7",
"eX c #B1B0AE",
"rX c #C59890",
"tX c #C6A598",
"yX c #D2ACA9",
"uX c #BCC1B3",
"iX c #BCC2BD",
"pX c #C4C8BB",
"aX c #B7BCC2",
"sX c #BEC4C3",
"dX c #C6CBC5",
"fX c #CBD2CA",
"gX c #D9D4CB",
"hX c #CDD3D4",
"jX c #D6D7D5",
"kX c #CCCDCD",
"lX c #E4D7CD",
"zX c #E5DCD4",
"xX c #DBE2DC",
"cX c #EBE1D8",
"vX c #FEF7EE",
"bX c #FFFAF2",
"nX c #FFFAF6",
"mX c #EBEAE4",
/* pixels */
"*.*.;.;.3.4.1.1.%XgX%X/.D.D.(.S.D.D.D.S.D.D.D.D.D.S.n.D.D.D.D.D.S.n.n.n. .A.S. .>.9.,.7.7.>.7.>.4.4.;.,.,.*.*.*.*.*.&.*. .&. .+.",
"*.;.*.;.;.3.1.4.` %XgXzXzXgXzXcXlXlXxXlXlXlXlXlXgXcXlXlXgXlXlXlXcXpXlXdX:XD.S.1.9.>.7.4.>.9.y.>.>.;.>.3.;.*.,.*.*.*.*.*.&.*.*.*.",
"&.*.;.;.3.3.4.3.5.n.zXvXvXvXvXvXvXbXbXvXvXvXvXvXbXvXvXvXnXnXnXnXbXnXnXmX:X4.,.0.5.4.r.3.4.>.>.4.4.,.4.,.1.,.,.*.;.&.*.*.*.&. .&.",
";.*.;.,.<.,.1.3.p./ S./.D.].].(.#X].#X#X].].].XX:X#X%X:X(.p. .` 1.4.g.r.+.;.p.4.r.t.3.r.4.5.4.4.4.4.4.;.;.;.*.3.*.*.*.&.&.*.` *.",
";.*.;.*.;.;.<.1.3.2.1.1. .1.1.2.1.2.2.2.5.5.r.4.0.p.` f * & & .     X $ q H O.>.r.t.t.r.5.5.1.1.3.4.4.>.>.;.,.,.*.&.*.&.' ` *.&.",
";.*.*.;.<.,.,.<.` M. .5.5.0.1.0.2.2.2.0.5.5.4.r.p.T 4     + % % @ 0 5 0     a +.t.r.r.6.3.5.5.5.4.4.4.>.4.3.;.,.*.*. .*.&.*.` *.",
"*.;.*.*.*.3.,.,. .5.` *.1.1.<. .<...1.3.3.3.;.;.T 5   @ 5 @ o o , o o O O o 5 H e.t.r.t.t.5.5.5.5.9.>.4.>.;.4.>.*.*.,.&.*.*.*.*.",
";.&.*.,.<.*.<.<.5. .5.<.1.` 2.2.<.6.1.4.3.3.+.e.3 $ o # + o + : O : , O ; # # 5 r.r.r.3.t.5.9.5.4.4.4.4.4.>.;.1.;.;.;.*.*.*.*.*.",
"*.&.*.*.*.*.*.<.*.<.<.<.1.1.<.<.1.<.5.' 3.4.;.O.$   0 + 0 - - O - ; - O O , @   f s.r.;.p.,.5.5.4.4.4.4.4.9.4.>.1.;.;.,.,.*.*.*.",
"*.*.*.*.<.*.3.;.<.*.*.<.*.<.<.3.<.<.3.+.3.;.r.E 0 o # o , , 5 : O O - O @ < @ # y w.w.>.p.,.9.,.r.4.4.i.4.4.4.4.>.4.3.,.,.;.*.*.",
"*.*.*.;.3.*.;.<.*.<.*.<.3.1.<.3.3.*.1.*.3.;.r.H $ $ @ # # o # o O + O # @ & & $ $ +.i.>.9.>.9.>.4.9.4.4.4.4.>.4.,.3.>.>.;.,.;.,.",
"*.,.*.,.3.3.1.;.<.3.3.3.<.3.3.3.<.3.*.3.;.+.t.a $ $ X $ 0 # # 0 $ $ . . & q y $ . ~ i.4.1.7.p.,.4.>.4.4.9.>.4.3.3.,.;.1.1.;.1.;.",
"*.,.*.;.*.3.3.1.3.3.3.r.3.3.t.3.3.3.*.3.<.+.r.w q w X . X X # X X $ * * l Y H y * ` p.4.4.4.t.;.>.4.4.4.4.>.4.4.,.*.,.;.,.,.,.;.",
"*.&.*.,.3.<.3.3.3.3.3.3.3.3.3.r.3.;.3.;.;.+.<.s s <.E u * * q * q z l E <.M.<.l Y *.t.4.4.t.t.3.4.4.4.>.4.4.>.>.;.;.,.,.*.;.*.*.",
"*.*.*.*.*.*.<.;.<.3.<.<.3.3.3.3.*.&.3.+.<.*.<.Y E %X].I.' E ] ] ( [ [ v.N.N.B.v.M.B.5.6.t.t.3.5.5.;.4.>.4.>.>.4.3.3.;.1.*.,.*.*.",
"*.*.*.*.*.<.*.<.;.@.;.;.@.<.<.3.*.+.5.` 3.<.@.] I.>XN.#XU.v.v.v.m.v.v.b.v.v.N.%X#XM.6.1.5.5.3.5.1.9.4.4.4.1.1.,.4.4.4.3.;.;.*.,.",
"*. .@. .*.<.<.<.<. .<. .<.<.<.<.3.@.@.;.*.*. .[ #XtXD.V.D.x.m.v.v.v.v.z.v.m.N.$XD.z  .v.v.6.M.1.4.1.1.1.1.1.1.,.1.1.3.4.3.,.3.;.",
"' '  . .<. .<.<.<.<.<.<.1.<.<.3.<.@.;.+.*.*. ...tX$XF.D.z.[ [ v.v.( [ z.m.v.b.&Xx.[ n.2.2.2. .5.9.2.0.1.1.1.1.1.5.3.<.*.1.3.4.4.",
"*.*.1.*. .*.<.1.*.+.+.@.@.;.*.;.@.;.;.;.>.&.` ) 2.yX[ b.V...( ( _ [ v.k.k = k N.D.m.D.N.5.n.*.p.i.5.9.,.>.,.4.;.,.*.*.;.3.3.3.;.",
"&.*.*.*.+.&.*.*.3.w.;.r.;.;.;.;.>.>.>.:.>.;.,.1.' $Xj = n x z.v.v.( k = j c k.b.$X..B.M.*.>.i.w.r.r.i.i.t.r.i.t.>.4.r.4.;.;.*.;.",
";.;.@.;.4.r.w.;.t.e.r.e.;.+.+.X.| | W W T Q ! ` eXU.c.J v j j k k k v = j K b.U.yXv.v.E W ! $.o.o.X.X.-.-.+.O.X.w.e.r.r.;.;.>.>.",
"X.X.X.` X.X.o.o.R H H H D Z A Z d d d d p y q h &X&XU.k.K v k j.J K J c K l.c.b.rXI.c.q a e e r M B Z S S D S f Z H ^ -.r.w.w.;.",
"Z S Z Z Z M a a i i i i i 4 4 w e e r p r y y * _ gXC.c.c.k h.x.j.k.k.K K j.k.c.yX>XM.a d d t t r r t p p i i i 5 q a U X.;.>.:.",
"4 y i a i i i i a a M M B A A Z S d d d C R &.p._ yXc.b.l.K h.C.k.x.x.( K l.U.rX>Xv._ s h C C p V V V B V V V A A i 3 q Z o.w.w.",
"a B A A M M M F M M F M M p p B y d i R L.K.L.I.N.&XrXx.x.h.x.C.V.x.x.l.l.C.&XyXF.v./ ^ T e C C C m m C C G m V V P S 4 3 a ! y.",
"A A M p N N F F F N N D r A B 4 Z R K.L.-.o.E E #X&XrXtXC.l.h.G.V.V.V.x.l.V.G.rX[ [ n.Y W o.p % G N t r N V m 8 m D P A 5 % d o.",
"A M p 9 G N G 9 9 6 9 > < 4   A P.$.e.o.Q $.W f ..F.V.rXG.V.l.C.rXrXx.x.x.F.yXF.z ) p.b ! L.Q P + + r r ; 1 t 8 G M D P d % % i ",
"M m 9 9 9 9 6 : 6 - , 0 <   r {.P.+.R e.R y.! d b ..( F.G.V.V.x c l.v c x.V.&Xx.z .. .U ~ #.T.R.{.C o 2 4 1 > 9 t t V P P r < % ",
"m 9 : - - - : : > O o r + e |.aXP.e.R K.o.%.%.L b  .) ) yXm.J c x k x k.x z.tXz b v. ./ ;.S J.{.|.aXe.+ @ 8 + 1 > 8 C P P C r 2 ",
"9 > : - - - : : : , + + 5 |.1X<X1Xr.I o.q.Q R.P f / p.z m.v.z @.k.k.J _ ) { [ u '  . ./ -.U e.H.H.T.<X,XP o O 8 2 7 8 G D P C 2 ",
"; ; ; : : > : : > 5 4   q.hX~.T.@XM.:.#.u.P T.%.I y S.E * Y @.6._ K J c.N.) u z 1.` &.T :.T s.s.J.!.H.@XaXK.8 o 2 : : 2 t P L 8 ",
"6 > ; - - : : : , O O y aX1X3Xa.+X(.:.! q.q.u.q.L W O.p.* w H I.c._ _ v.D.{ * / *.` ` ~ w.U s.w.~.d.J.Y.R.aX,Xr ; : 2 2 2 t C P ",
"6 6 > > 6 > , 1 4 + d 0XqX;X5X9./.+Xa.X.H.s.$.J.R R o.P.s a $ R X.H J @.J w l 6.] @.` ^ >.T u.w.+X/.r.J.J.{.0X1X5 @ ; 8 + 7 P N ",
"6 6 > > 6 , 6 1 o Z @XdX=X'.7XQ.f.+Xs.w.:.J.;.d.;.H X.{.R i i 5 w H H u # q { @.E @.^ *.&.! J.s.+XJ.r.J.P.~.<X0X!.O 4 + 8 : 7 V ",
"> 6 - > : - 1 O r e.2XaX3XS.5X*Xy.[.f.H.! ^.d.w.H.U o.!.K.Z R @ $ $ X X * H @.+.E 1.^ g.~ &.E.T.@Xg.J.J.E.^. X<XwXL., O 8 8 6 G ",
"6 6 - > : - 4 o S s.[.2X5XQ.S.5Xd.E.J.Y.~ !.~.i.s.X.^ J.+XR o.S q w q q l @.E s +.3.4.E.~ a.T.[.~.P.~.g.f.+X|. X2XhXS o 2 7 7 6 ",
"6 6 : 6 5 : 1 o R :.,X2XXX;X9.5X^.f.E.f.>.Z. XY.d.f.! w.,Xe.S $.a s ^ T H Y s H 4.*./.M.=.Z.T.|.P./.^.f.E.XX_.}.<XaX<X2 8 + 2 2 ",
"> 6 > > 1 , o 3 ,X!.q.qX.XXX`.Z.=Xd.E.d.T.i.|.).f.!.#.$.+X@XS X.g.H s w w u l (.5.*.).g.a.T.~.|.^./.W./.`.Q.~. X<X|.hX%.% e m t ",
"9 6 7 , 1 4 8 $.hXqXU oX*X~.2XA. Xd.E.d.).i.).OXE.E.d.X.!.,X$.U [.@Xg.+.t.P.P.p.9.g.Q.Z.Y.T.|..X[.^.E.Q.+XQ.Q.*X).1XiXwXd d P a ",
"9 9 i 0 m R $.kX0XaX~.>.~.XXW.=XE.a.f.d. Xa.Q.2X).A. X#.y.+X~.a X.,X!.^.Q.f.`./.p..X/.~.Q.T.-X|.Q.XX/.Q.'.Q. X.X*X=X1XhXu.d e i ",
"A A N F A U 0XaX*X7XsXL W.Z.oX}.}.>.f.=.=XY.d.4X.XA.a.u.:.}.,Xy.f [.OX,X X).2Xg.`./.Q.Z.oX~.}.|.'.).Z.;XT.S.*XS.=X*X<XwXsXL P I ",
"D H R R S !.aX,X1XA.sXY.W oXu.[.oXf.u.#. XQ.A.3X*XT.Y.A.w.E.oX[.S T  X2X)..XQ. XOX`.Q.Z. XQ. XOX|.).'.'.S._.'.'.).=X7XuXkXq.L I ",
"D H P A o.qXdX4X-X*X).iX} 8.T.u.~.Y.q.! T.~.a.=X=X~.T.A.y.s.}.<X=.d u.<X-X|.A.*X.X`.Q.W..X}.}.<XR._.*XA.'.'.Z.*X'.*X3X7XhX1Xf d ",
"D F N H 0XwXOXqX<X'.7X-X1X#.Y.A.d.T.y.W f.W.a. X<X|.A.A.u.a.!.<X|.Q I T.=X|..X).`. XW.`.=X).E. XA._.*XA.T.'._.'.'.*X=X3XdXjX} d ",
"Z M Z P.hXwXJ..X*X*X.X7X|.,X#.[.u.Y.8.L d.T.Y.}.-X-X).A.y.8.H.|.<X~.L Q ).-X1X.X.X XQ.OX2X/.9.).A.-X`.Z.'._.'.'._.*X3X6XiXxX).d ",
"w i R 0X,XwX.X_.).'.A.-X<XT.{.L.u.q.Q f y.Y.T.T.}.<X-XT.u.$.u.T.|.<X8.L 8..X*X=X.X)./.XX3Xg.9.2XA.<X}._.*X)..X'.'.*X4X8XwXsX<Xy ",
"5 5 {.aXE..X*XXX_._.T.}.}.}.H.L.K.u.#.Q q.A.T.T._.oX1X|.Y.q.q.s.{.<X|.#.| A.W.*X'.Q.`..X%X~  .4XT.oX).).'.'._.'.*X'.2X3XwX4X.XL ",
"3 q jXhX3Xa.9.Q.).*X'.~.|.}.q.T.T.~.u.T.u.Y.A.~.R.~.oX<X~.s.:.%.d.|.<XA.| =.W.).OX.X=XXXoXf U XX).}.}._._.*XS.'.*X'.9X=XiX.X.Xa.",
"  @XjX4X[.`.^.Q.E.~. X|.{.!.Y.!.0.*XuX).A.8.T.T.A.R.R.'.|.~.a.#.u.s.oX<Xs.} s.Q..XW.-X=X8.^ =.=.8.Z.Q.f.).).W._.*X<X=X=X7X8.dXiX",
"~ qXjXwXOXQ.J.d.~.^.!.E.!.^.!.u.'.xXuXuXA.%.A.A.T.T.R.R.}.).A.8.#.d.W.|.}.y.=.Y.W._. XW.9._.*XW.Y.8.E.W.T.A.`..X*X).=X4X} 8XdXuX",
"wXqX:XQ.f.g.f.Y.w.Y.{.!.~.{.y.T b gXdX7XT.A.A.A.T.T.T._.^.+X~.A.#.:.y.T.-X~.8.a.~.}.|.W.Z.*X3X.X*Xy.#.=.Z.W..XW.~.=X|.A.*XfX|.xX",
"gXwX4XeX=X/.a.=.J.f.d.d.Y.J.! y y ;XmXsXuXT.A.A.Z.S.T.W.~.}.}.~.y.Q ~ f.~.|.~.y.T.}..X`.~.W.W.).}.A.I b T.*X).T.`.W._.W.iX3X;XfX",
"dX:XQ.S.9.7.a.i.a.d.s.s.s.s.H.f.0.eXgXyX6X X).T.f.Y.P.M.E.!.[.|.~.#.! #.y.~.oXY.:._.oX^.~.Q.~.E.a.A.! W _.W.~.*X_.Z..X3X*X*XiX5X",
"]._.'.]._._.}.Q.E.~.~.s.o.S d d l gXgXdXdXwX.Xa.g.g.P.g.g.f.T.~.^.!.#.W =.s.Z.).d.E.~.~.).~.T.W.Z.8.#.Z.*Xa.~.`._.-X=X|..X1X4X7X",
"*X:X;X5X;X:X.XQ..X~.H.f.J.:.f . * cXjX0XqXqX<X|.y.i.i.d.s.s.f.A.E.|.d.| ! } :.T.~.Y.T.).).f.a.T.T.,.} `.wX~._.W.*XT.=X*X*X*X6X7X",
"8X5X5X;X5X:X:XXX). XQ.!.~.}.d.} & 0.jXdXwXqX4XT.i.r.r.r.g.s.s.y.A.E.}.a.I W w.y.d.f.~.E.Z.T.E.d.=.y.! ~.hX3X_.).T.'.Z.*X|.=X;X1X",
"uX5X;X5X8X5X;X;X:X X). X~.f.Y.~.A.E..X<XiXqX<X).a.>.;.i.a.y.y.8.d.y.Y.^.y.I I :.y.a.f.Y.Y.f.s.y.8.} a.).sXxX*X)..X).)..X*X=X=X=X",
"5X5X8XuXuX7X7X8X`..XOX-XOX X}.}.S.~.W.E.).)._.W.a.,.~ O.;.y.y.y.y.y.d.Y.!.s.! L 8.>.:.:.a.H.d.a.a.=.u.~.sXmX3XS.W.).`..X).).'.=X",
"uX8X8XuXuXuXuX7X:X3X3X=X*X.X X_..X|.W.Z.A.T.A.Z.g.0.9.4.=.=.7.8.:.y.a.a.f.~.a.! L Q :.w.:.:.q.y.y.a.T._.iXxXiXT.'._.T.T.T._.=X6X",
"5XuXpXpXpXuX7X7X8X8X6X2X=X=X=XoX-X*X~.|.)..X_.Z.Q.p.1.1.i.9.7.y.u.a.u.y.y.u.Z.W.:.o.I I ! $.-.#.=.Z.~.oX7XhXdXA._.T._.).'.'.|.*X",
"lXgXpXuXuXpXpXuX5X;X5X5X5X;X=X;X%X}.Q.3X*X*X`.D.]. .Y Y <.5.9.p.f.y.y.s.s.y.y.s.[.d.$.o.o.X.o.! !  .#.Z.<XhXfXa.).).).)._.~.W._.",
"5XuXpXuXpXfXfXpXuXuX5X5X5X=X5X7X2X.X=X4X*X*X%X:X2.{ Y { ' ' <.p.i.a.d.d.f.d.y.y.:.s.J.d.:.$.-.u.7.8.| 8.W.sXxXuXA.S.W.T.A.A.).3X",
"h  .;X5XS.S.S.S.uXuXuX7X5X5XuXuX3XOXeX9X2X:X>X%X{ [ ..z.[ ] ' 3.,.a.d.a.u.s.H.f.y.q.$.$.q.q.s.H.~.E.Z.Z.W.3XfXpX} 7.T.`.|._..X=X",
";X8XuX5X;X*XS.A.A.S.;X*X;X5X7X5X:X%X9XeX9X9X9XD.) [ ..[ 6.v.6.' 9.:.=.7.u.y.y.y.a.y.y.y.$.o.#.;.7.8.A.Q.~._.Z.A.7.A.A.W._._._.W."
};
