/* XPM */
static char *_480_68064cd123abfe64594b6a2d3da2536713db058f8ec13bf26386a51de6640f80[] = {
/* columns rows colors chars-per-pixel */
"64 64 250 2 ",
"   c #0D0708",
".  c #150B09",
"X  c #19110D",
"o  c #140E11",
"O  c #1A1616",
"+  c #27160B",
"@  c #361908",
"#  c #221C1B",
"$  c #271A16",
"%  c #33110D",
"&  c #28221D",
"*  c #3A251A",
"=  c #3B260A",
"-  c #1D1E21",
";  c #292626",
":  c #372926",
">  c #3A3634",
",  c #343031",
"<  c #4C1812",
"1  c #492619",
"2  c #512B17",
"3  c #622B1E",
"4  c #462A25",
"5  c #542D25",
"6  c #47342B",
"7  c #583529",
"8  c #483A35",
"9  c #563C37",
"0  c #692928",
"q  c #633B2C",
"w  c #663827",
"e  c #633B33",
"r  c #6A3B33",
"t  c #773939",
"y  c #72272E",
"u  c #611517",
"i  c #5A4438",
"p  c #59402C",
"a  c #694638",
"s  c #76493B",
"d  c #725136",
"f  c #3E3F43",
"g  c #594742",
"h  c #595455",
"j  c #504A47",
"k  c #684A45",
"l  c #764B44",
"z  c #6B5248",
"x  c #795549",
"c  c #6A5754",
"v  c #7B5B54",
"b  c #755A56",
"n  c #6B4E50",
"m  c #79635C",
"M  c #6A605F",
"N  c #6E6564",
"B  c #796A67",
"V  c #7A7476",
"C  c #79706F",
"Z  c #615C60",
"A  c #853A3E",
"S  c #84553C",
"D  c #8B4E3B",
"F  c #893F45",
"G  c #884A46",
"H  c #82554B",
"J  c #845B4C",
"K  c #8B5C4C",
"L  c #875746",
"P  c #925D4B",
"I  c #985A48",
"U  c #845C53",
"Y  c #875B54",
"T  c #965B56",
"R  c #944B4E",
"E  c #A55D4B",
"W  c #89634B",
"Q  c #97634A",
"!  c #8C6354",
"~  c #8C635B",
"^  c #876659",
"/  c #946553",
"(  c #94645B",
")  c #94695B",
"_  c #9B6B5C",
"`  c #9B6855",
"'  c #9B735B",
"]  c #9E704F",
"[  c #A6664B",
"{  c #A36B54",
"}  c #A46D5A",
"|  c #A86957",
" . c #B26E53",
".. c #AC735C",
"X. c #A6755C",
"o. c #B57154",
"O. c #B3755C",
"+. c #BC7B5D",
"@. c #B8755A",
"#. c #B36D4F",
"$. c #886B67",
"%. c #976B64",
"&. c #88746A",
"*. c #9D7263",
"=. c #98766B",
"-. c #8B7D7C",
";. c #857875",
":. c #977A76",
">. c #966F70",
",. c #A96A65",
"<. c #A37563",
"1. c #A57A65",
"2. c #AD7D6A",
"3. c #A97867",
"4. c #B47B64",
"5. c #BC7D62",
"6. c #B47869",
"7. c #A87B75",
"8. c #BA7976",
"9. c #B46D6B",
"0. c #A65B64",
"q. c #C17B5E",
"w. c #C37E63",
"e. c #C17E6C",
"r. c #C57D7B",
"t. c #89817E",
"y. c #99867A",
"u. c #98806E",
"i. c #AA826A",
"p. c #BB8265",
"a. c #BB856B",
"s. c #B5856B",
"d. c #A98478",
"f. c #B38573",
"g. c #BB8B74",
"h. c #BB8C7B",
"j. c #B78877",
"k. c #BD927B",
"l. c #C48264",
"z. c #C4856A",
"x. c #C58B6D",
"c. c #CA8A6C",
"v. c #CB8667",
"b. c #D48D65",
"n. c #D7926B",
"m. c #C48C74",
"M. c #CC8D73",
"N. c #C58878",
"B. c #D08E73",
"V. c #CC9275",
"C. c #C4947C",
"Z. c #CC937A",
"A. c #CA987A",
"S. c #D29374",
"D. c #D3957A",
"F. c #D49A7C",
"G. c #DA9B78",
"H. c #C9936F",
"J. c #E1A17E",
"K. c #CF9674",
"L. c #7F7E85",
"P. c #827F85",
"I. c #897E85",
"U. c #947F82",
"Y. c #A17E82",
"T. c #C97F84",
"R. c #7E8285",
"E. c #7E8188",
"W. c #828285",
"Q. c #8C8384",
"!. c #828289",
"~. c #8B858B",
"^. c #8A8988",
"/. c #938482",
"(. c #978988",
"). c #8D8C91",
"_. c #988F92",
"`. c #A78B88",
"'. c #BB8C83",
"]. c #B78A84",
"[. c #BC9388",
"{. c #A99696",
"}. c #B79895",
"|. c #A38F91",
" X c #C88A85",
".X c #C29383",
"XX c #C69B83",
"oX c #CC9A84",
"OX c #C89789",
"+X c #D39C83",
"@X c #DA9E83",
"#X c #D39D8A",
"$X c #D69888",
"%X c #C99C94",
"&X c #D79B96",
"*X c #D48B8D",
"=X c #E2999C",
"-X c #CCA289",
";X c #DBA284",
":X c #D4A48C",
">X c #DBA38B",
",X c #D6A98D",
"<X c #D8A688",
"1X c #CAA498",
"2X c #D4A493",
"3X c #DAA594",
"4X c #DBAB93",
"5X c #DCAC9B",
"6X c #D6A797",
"7X c #DDB19B",
"8X c #DCB196",
"9X c #E1A88A",
"0X c #E2AB97",
"qX c #E3B39B",
"wX c #E7B599",
"eX c #E79CA3",
"rX c #D9ACA5",
"tX c #DEB2A2",
"yX c #DEB8A7",
"uX c #CFAFAA",
"iX c #E4ABA3",
"pX c #E3B4A4",
"aX c #EAB4A3",
"sX c #E4BAA5",
"dX c #EABBA3",
"fX c #E5B4AB",
"gX c #E5BBAB",
"hX c #EBBCAC",
"jX c #EAB7AA",
"kX c #E7BBB1",
"lX c #F4BDB6",
"zX c #F1B3A8",
"xX c #EDC2AC",
"cX c #E7C1AA",
"vX c #F4C3AD",
"bX c #ECC2B3",
"nX c #ECC7B9",
"mX c #F2C4B4",
"MX c #F4CAB5",
"NX c #F3CABB",
"BX c #F9C7B9",
"VX c #F7D2BD",
"CX c #EDCCC4",
"ZX c #F7CCC4",
"AX c #FCD4C4",
"SX c #FED4CB",
"DX c #F8D6C9",
"FX c #FADCD5",
"GX c #FCE2DB",
"HX c #FDE8E5",
/* pixels */
"8 y.C /.|.|.U.~ F T E [ E E #.E Q D Q X.a.a.g.oXqXwXiXpXpXhXkXjXmXmXmXNXNXbXpXtX2X:XF.F.n.n.b.b.l.l.l.p. .[ ] { Q S L x L x z y.",
"j (.C (.{.{.Y.>.0.9.6.w.w.w.v.b.x.p.p.V.+X+X#X4X0XiXiX5XpXpXjXfXhXhXhXhXhXpX5X6X:X:X;XF.S.n.b.b.c.p.l.l.#.] { [ { / ) K W x l u.",
"c (.C (.{.}.Y.>.$.} 9.e.w.v.v.n.V.x.M.Z.A.Z.oX#X0X0X5X4X0XiXpXtXgXpXpXpXpXpX7X5X,X:X;XF.n.n.b.b.v.l.l.l.o. .{  .X./ ' ! ~ x a :.",
"g t.C |.{.|.Y.>.T 0.| @.w.w.w.v.c.x.x.m.V.Z.A.+X4X4X3X3X3X5X5X5X5XpXpXtXsXgXsXpX:X:XF.J.S.n.b.b.b.l.l.+.@.] o.] { ] ) W ~ x z u.",
"i V C {.|.y.>.>.T | [ q.q.q.q.w.c.H.V.V.V.F.+X+X#X>X3X:X#X3X3X3X2X6X5X5XpXgXhXpX,X>X;XG.G.n.b.b.v.l.l.l.#.o.#.] } ] _ ! ) v x `.",
"p C C {.(.t.>.<.T E E q.@.@.q.q.l.l.c.c.V.D.F.@X+X#X>X#X@X3X>X3X2X6XtXtXgXgXsX7X4X,X9XJ.G.n.n.b.b.l.l.l.l.o.p.X...` ' ) ) ^ x `.",
"i C C {.y.$.$.>.( I E #.q.o.@.q.l.p.5.c.S.D.F.@XD.+X@X>X@X@X3X>X2X5XtXpXgXhXhXqX0X0X9XJ.J.n.n.n.v.l.l.q.o.l.o.o...} } ) ) J k 7.",
"h V N (.;.B $.%.K R I E [ E #.#.o.#.#.5.c.c.M.S.M.D.@X@X3X9X9X&X:X6XtX5XtXhXgX7XwX9XwX9XJ.J.G.n.b.l.l.l.l.o.p.o.X.} <._ %.U k =.",
"h ;.C -.U.$.>.%./ { #.#.#.#.o.o.o.#.@.+.l.v.M.D.V.M.V.D.;X>X>X#X2X5X5X7XsXbXbXsXpX7X4X9X9XG.n.b.n.v.l.l.l.l.5.O.....} _ *.a q d.",
"m C B ;.I.&.v x G D E [ #.q.q.v.q.@.q.l.c.v.V.S.D.V.M.V.F.@X@X$X#X2X5XtXgXNXmXhXhXqX:X;X<XF.S.c.D.B.c.l.5.5.5.4.....` Q / L x OX",
";.C C &.U.:.b U S D D I E #.#.o.+.+.+.w.l.l.x.c.S.M.M.V.F.;X9X9X0XqXsXhXbXNXnXkXtXtX5X:X;XA.H.x.+.+.5.5.+.5.l.z...X.} } / 2.'.iX",
"(.C C ;.I.$.U ! T [ [ #.#.#.#.#.+.+.w.w.l.l.x.c.S.V.S.D.9X0XwXwX0XdXhXmXNXnXbXyXyXsXtX4X:XXXk.a.p.p.p.l.z.l.p.p.o.O.} ..` 3XiXpX",
"y.;.N t.-.m ^ H / | @.w.v.v.v.q.c.B.B.B.B.B.D.F.@X@X@X;X9X9X>X>X>X5XdXmXmXNXbXyXbXkXtX6X6X-XC.g.a.p.4.5.z.z.p.+.O...[ } } zXwX&X",
"Q.;.M t.(.$.>.x P I  .q.l.v.v.v.B.D.S.B.c.B.D.D.;X;X@X;X;X;X;X+X9X0XdXmXmXbXnXkXyXyXyX1X].h.k.k.m.a.4.p.z.x.z.+.4.O.I [ 5.aX0X#X",
"/.C M &.$.m $.J Q {  .@.w.v.B.B.c.B.B.c.c.c.D.D.@X@X@X;X<X9X>X>XwXdXhXmXbXgXuXuX1X1X}.=.m x W / 3.p.a.m.M.x.a.5.5.w.[ [ r.9X@XwX",
"t.N M h 8 8 9 a L P [  .q.e.D.G.M.B.D.M.M.M.F.F.9X;X>X>X>X>X0X0XaXaXdXhXgXrX6X1X}.(.^ z a a p 1 < w Q 4.a.z.x.x.+.z. .I c.D.@XlX",
"(.-.h 8 ; $ X = 5 p d ) X.s.N.#X+X@X@XG.F.F.F.J.<X9XJ.J.,X,X4XdX7X7XyXtX1X1X`.) m v i 9 7 6 6 1 2 2 3 Q i.H.H.H.H.H.p.S [ a.V.0X",
"P.!.h ; o & X + @ @ 1 p x %.i.m.Z.B.D.Z.F.F.F.<X<X;X,X8X4X4X5X5X7X1X[.d.=.^ a i 9 8 4 6 8 6 : * d 3 w d ] H.A.G.H.s.p.] ] @.,.6.",
"W.).Z O X & $ X . . . % 7 z ~ *.2.a.m.C.V.V.A.;X;X-X<X<X-X:X4X-X-Xd.) x z i 6 9 1 8 9 6 8 x x x W d S ] i.H.A.A.K.H.s.S ` $X&Xh.",
"~.).N O $ $ & @ % % % % @ 1 i x J _ f.g.g.g.g.C.oXZ.:XoXk.XXoXi.x d 2 = * 6 6 : g $.y.y.=.d.>.=.u.i.i.p.A.A.,XA.G.A.H.i.{ iXSXzX",
"~.).C , : : : 8 4 : : * $ $ * 1 p a x ) 1.f.g.g.+XN..Xh.i.X.) d = = = + * 8 p 8 M B b v Y %.%.OXs.i.k.,X,XF.J.,X<Xx.a.s.{  XBXlX",
"I._.L.8 : g n k 9 8 4 : : * ; & : 1 4 9 v *.2.f..X6.} J a p w 2 = = p p p 8 > > $ 6 X 1 7 l l T i.s.-X8X8X,X,XJ.A.A.x.4.P 6.aXaX",
"~._.~.B g h c g 9 4 : : : ; & & * & * 1 7 l ( *.3.` d 3 2 < 2 p d d d p 4 6 4 . 4 9 % 5 e y G T g.-X7XcXcX8X,XA.H.;Xm.` L 6.jX0X",
"^.W.I.(.c n k g 8 4 * $ $ X O & * : 4 : 1 4 s Y K L S a w w d W W d d p 9 $.$.O : 8 * Y.].r G %X1XyXVXMXcX8X8XJ.A.A.a.} Q <.&XOX",
"^.^./.t.$.N n 9 b 4 : 4 +   ; # O > : 6 4 < e Y ~ H G J ) 1.i.i.] Q S a L uXuXn 4 9 $.fX}.R Y &XMXnXVXMXxX8X8X,X-XC.g.` P ` 2XqX",
"Q.Q.t./.(.;.b 9 % 8 $.B ; . O X X i p * 1 4 e Y Y.T..X.XXX-X-Xk.H.p.` K K ].uXuX|.}.}.].7.>. XrXVXVXVXVXMXcX8X-X,XC.s.Q S 2.BXhX",
"Q.Q.-./._.:.b 8 9 v `.(.i + $ 6 k $.i + * 1 e Y ].5XlXgXqX8X8X9XdXJ.x.a.,.Y ~ >.`.:.u.&.:.].kXCXDXVXDXVXMXcX8X8X-Xg.s.W s g.SX7X",
"Q.Q.Q./.y.t.m i k k v :.&.a 9 z y.:.e * < % e 7.d.5XMXjX4X,X8X9X9XJ.z.6.3.,.%.%.=.^ &.y.uXuXCXSXDXDXVXVXMXcX8X,XC.g.i.W s C.VX6X",
"Q.Q.-./.(.`.u.b z v x ^ d.d.%.^ 1.>.T x 5 % s d.f.tXMXdX9X9XwXwXwXaX3XN.8.i.].'.}.1XuXuXCXDXGXDXGXDXVXVXnXcX8X1XXXC.1.S S h.BXMX",
"/.I.-.t.|.{.u.v z ^ x a a s K P _ _ %.Y 5 < x 2.h.pXVXvX8XwX9XwX0XaXaXqX6X2X6XfXyXcXCXCXGXHXHXGXGXDXDXVXnXyX8X-Xk.g.' L S i.sXVX",
"~.I.U.U.|.|.u.m k x ! W s s I ,.6.6.` G w w / 1.[.sXVXvXwX8XwXwXhXsXcXxXgXtXtXgXnXCXCXGXHXGXGXHXGXDXDXVXnXyX6X-Xk.i.W Q L f.pXqX",
"I.(.~./.(.`.y.&.W x ! ` Q P { 4.8.N.,.P L s ) '.OXxXAXVXwX9XwXdX7XsXVXSXVXMXbXcXnXCXCXGXCXHXGXHXGXDXVXVXcX7X,X-X[.' W ) W [.NXgX",
"~.I.U.I.U.}.}.=.%.%.3.3.6.N.M.N.M.8.4._ ) 1.d.d.%XgXSXBXsX7XdXsXxXxXmXNXAXAXZXNXZXCXCXDXFXGXGXFXSXBXvXcXcX8X-X-XC.' H ! x y.uXyX",
"!.~.~.I.U.|.}.y.d.h.N.N.N.Z.Z.N.Z.z.4.} <.i.[.[.%XkXSXAXgXtXgXsXpXpXgXmXBXSXSXSXFXZXDXFXFXFXDXDXmXhXcXwX8X-XA.k.j.W K ) l >.|.{.",
").P.~./.U.|.}.[.'..XOX+X+X+XD.B.B.e.4.} 2.f.'.1X%XkXSXSXhXpXgXtXpX0XiXjXbXZXZXDXSXDXDXCXSXZXCXlXdXdXwXwX8X-Xk.g.=.K ) %.b >.(.U.",
").).~.~.U./.}.}.].[.OXoX$X$X+XD.B.e.| ` <.d.h.1X%XfXSXSXhXpXpXpXqX5X6X5XpXkXbXnXZXCXCXZXCXCXkXkXdXdXcX7X8X-XC.g.' J ) $.m U.|._.",
"P.!.!.~.t.y.(.}.[.[.OXoX$X+XD.S.N.e.| I P 1.'.%X%XfXSXSXlXfXpXtX3X2X#X2XtXjXbXNXnXCXNXZXNXnXbXhXqXwXqX8X-X-Xk.i.T Y %.H b U.|._.",
"E.!.W.W.t.;.=.d.].h.h.C.oXD.S.B.B.e...G s ` [.%X6XkXSXSXlXjXsXqX3X#XOX#X6XpXkXbXmXNXNXNXNXnXxXsXdXcXwX,X-X-Xk.i.Y l ~ n b U._.~.",
"R.W.W.t.^.t.&.&.=.=.i.j.m.M.B.M.c.z.9.D w K ].[.&XfXZXSXBXjXaXiX0X#X$X#X3X5XpXfXbXnXNXBXNXmXxXhXxXdXwX,X-X-Xj.=.H l $.k b (._._.",
"R.W.R.R.(.Q.&.&.$.%.3.2.m.M.M.z.c.8.4.D < H '.].%XeXZXZXlXhXjXaX3X$XoXoX&X3X5XpXhXxXmXMXBXmXvXdXwXdXwX,X-X-Xd.' Y x >.9 n (._._.",
"R.R.R.^.^.^.t.m &.) u.s.g.x.c.z.r.c.,.D < K '.'.rXfXlXlXlXlXfXiX0X#X$X#X&X2X2XtXpXjXbXvXvXxXdXxXwXwX8X,X-XXX2.J Y $.~ n m _.U._.",
"R.^.R.^.^.).t.B B $.' i.s.p.z.w.e.N.6.P 2 K [.OX%XrXZXSXZXlXkXiXaX0X$XoX#X6X2X2X5XpXsXhXxXsXdXwXqXwX4X-X-Xk.=.! ( ~ b a B Y.(.).",
"R.R.R.R.^.t.t.&.m ^ =.=.X.s.z.5.O.6.9.` w 7.%X[.*XrXlXZXlXlXeXiXzX3X&X2X6X6X2X%X6X5XaXsXdXdXwXwXqXqX8X,Xk.g.1.) ) Y l k ^ (.(.Q.",
"R.R.R.R.R.R.R.t.B m ' ' X.4.p.4. .6.} P s d.%Xd.%XrXlXZXlXlXiXrX&X$X2XaXjX6X#X2X6X5XqXdXdXqXwXwXqXwX8X-Xk.d.*.) Y H x b $.y.(./.",
"E.!.!.!.R.^.R.t.B m ^ ) / { ....4...` G s %.d.7.].&XfXlXfX5XOXj.2..XiXBXlXqX5X6X6X7X7XqXpXwXwXwXqX8X:Xk.j.2.' ! / H l ^ &.:.y.y.",
"E.E.!.E.R.R.W.^.C m m ^ / ` { [ 4.` P L w e l ~ ,.Y.&XrX&Xh.%.G `  XkXhXhXlXhXtX5X7X7XqXqXdXwXqXwX4XXXg.i.1.) ) %.l r Y =.:.y.y.",
"!.P.E.!.R.W.W.^.t.m m ^ ) ] { { | I L D w 5 7 7 Y >.]..X].,./ K 2.OXiXpXfXlXbXgXpX7X5X7XqXqXqXwX8X,XXXg.i.<.*.*.` s w ) =.u.y.y.",
"P.!.R.!.E.R.R.^.Q.M b ^ ) Q ` } ` / P a 7 r 7 @ 5 l T %.( ( *.7.'.h..X&XtXtXpXlXpXtX5X5X5XqX8XwX4X,XC.g.3._ *.<.G r r ' u.&.y.y.",
"P.L.E.E.R.R.L.-.Q.C c x ) ! K ` ) K l q 7 q 7 @ 1 < 1 9 Y Y Y '.f.h..XOXOXOX%X2XpXpXqX6X2X:X6X4X,X-XC.k._ ,.%.T s a x =.u.u.u.y.",
"L.!.L.W.E.E.E.W.^.t.m c ^ ^ / ) J l s a 7 5 5 1 1 2 5 a Y >.%.'..X'.].f.d.j.h.'.OX%X6X5X5X4X4X,X<XA.g.j._ %.Y H a a x u.u.' u.y.",
"P.L.E.W.E.E.L.W.W.t.&.b v W K J J l r e 2 1 5 7 5 l Y ~ ,.7.7. X.XOX&X6X&X.XY.8.j.'..XOX#X:X:X:X-XC.s.3.` %.K s w a W i.u.=.u.`.",
"-.P.P.E.E.E.!.P.Q./.-.m x m ^ ~ U l e 7 1 7 r l l %.d.7.7.Y. XiXiX5XiXiXrX%XOX X XN.j.g.h.XX:X4X+Xm.2.<._ ( H p 7 d ' d.i.' u.d.",
"L.L.P.L.E.E.E.E.W.Q.t.B z a m ^ Y l 7 7 e x ~ ~ Y 7.%X&X&X&X=XlX&X*X].*X&XeX&X&X XN.h.f.g.k.oX:XA.g.<.) ` ! s w p W i.i.' ' ' ) ",
"P.P.P.P.E.E.E.!.R.t.(.Q.M k z m x k e e k Y Y b e s %. X*X XY.T.8.9.9.,.,.,.7.8.%.,.3.6.s.f.g.C.g.4.` Q %.L d p d u.s.X.1.1._ P ",
"P.P.P.!.!.E.E.E.).W.^.;.h i z b n k e e e a e 0 r 0 t H %.9.,.0.0.R R F A A R | T } ,.3.<.X.i.s...} / W ' s a 7 S i.i.X.3.3.{ I ",
"P.P.P.P.P.L.E.E.).C h 8 O O i k b 9 9 9 9 4 5 1 % % u y F R G A t y y R 9. X*X X*X Xh.6.} ' X.s.' Q Q ! *.x w w W i.i.O.p.9.E I ",
"E.E.R.E.E.E.R.h f ; o - O . & i n k 6 k i 5 4 5 < % % < u u u u F 0.T.eXeXeX*XT.N.$X$Xj.6.<.] ' X.K / ! L a q W i.p.i.p.p.o.#.[ ",
").V E.).V ; - , , -   - O   O , g n 9 9 9 k k l T A t F R R R 0.T.T.eXeXeXT.r.r.N. XZ.j.4._ W W J / W J s 2 a 1.p.i.s.p.p.]  .[ ",
"C N h - - O - - - -   - O . X O : g 9 g g n b x Y ~ %.8.*X&X&X*XT.eXeXeXr.9.9.e.8.m.g.s.i.' L d d ! s x s q / f.s.p.p.p.5.5...| ",
", - o o - - ; , ; ; o O O   o . o , 8 g k n n n k H ( 8.&X=X*Xr.T.T.T.T.e.9.8.r.6.6.6.4.i.' W W x a s x q l j.2.g.H.p.p.p.5.O.| ",
"    O > , o O , j > # O O o O o X ; 8 : 8 g k n k l H ( 9. Xr.9. X8.9...,.O.9.9...X.1.2.i.u.W W d p z a 5 T j.j.H.g.z.p.p.5.3...",
"O , j ;   o - > j > - # O o O O . : j : 4 g g n k t l G T ,.,.,.} T R G R E [ I 4.s.a.k.p.u.d x p k a 5 l 7.3. Xm.z.z.l.p.4.4...",
"> > ; ; X o - , , - o # O . o O   ; h > > 8 8 9 n k k t r 0 y w 0 0 D R | ..4.5.g.A.C.A.s.W p d p k 6 9 7.'.9.Z.M.x.p.p.p.p.4.1.",
"> : O   o # # O   o o ; -   o #   ; h 8 , : 4 g l k r e 0 3 3 0 G }  X3X=X@X&X9X-XA.A.k.i.d p p : i 5 v ].7.2.N.m.x.p.p.p.p.4.1."
};
