/* XPM */
static char *_3325_86ef3e1f3a4d14c09f7a8e583a92cf30a091b574d055c7055bd579e837b0166a[] = {
/* columns rows colors chars-per-pixel */
"64 64 245 2 ",
"   c #040404",
".  c #0A0405",
"X  c #030905",
"o  c #0C0A06",
"O  c #060609",
"+  c #090609",
"@  c #040A0A",
"#  c #0B090A",
"$  c #130202",
"%  c #1B0201",
"&  c #1D0B04",
"*  c #130C0C",
"=  c #1B0C0C",
"-  c #140808",
";  c #14120E",
":  c #1B120D",
">  c #181209",
",  c #0E0D11",
"<  c #130E11",
"1  c #190E12",
"2  c #0E1316",
"3  c #141214",
"4  c #1B1414",
"5  c #14151A",
"6  c #1A161A",
"7  c #1C1A1C",
"8  c #181917",
"9  c #230302",
"0  c #2C0101",
"q  c #230C0A",
"w  c #270B05",
"e  c #380705",
"r  c #2A140C",
"t  c #261309",
"y  c #37150B",
"u  c #2A0E12",
"i  c #22161B",
"p  c #231B1D",
"a  c #281715",
"s  c #351912",
"d  c #361C18",
"f  c #28211C",
"g  c #3C231C",
"h  c #3A2419",
"j  c #1E1E22",
"k  c #221D22",
"l  c #291E22",
"z  c #311E20",
"x  c #1B2325",
"c  c #232224",
"v  c #2C2A2C",
"b  c #292528",
"n  c #372727",
"m  c #382E33",
"M  c #393638",
"N  c #322F31",
"B  c #450807",
"V  c #48170A",
"C  c #551909",
"Z  c #461915",
"A  c #581718",
"S  c #4F090C",
"D  c #6A1717",
"F  c #781515",
"G  c #6B130C",
"H  c #482619",
"J  c #572518",
"K  c #552E18",
"L  c #662817",
"P  c #73291B",
"I  c #6B331B",
"U  c #723218",
"Y  c #462A26",
"T  c #582A25",
"R  c #4A332A",
"E  c #593529",
"W  c #4C3C3D",
"Q  c #473636",
"!  c #583B37",
"~  c #452F31",
"^  c #662724",
"/  c #663727",
"(  c #763A27",
")  c #633A32",
"_  c #773330",
"`  c #661E22",
"'  c #5D4339",
"]  c #48413B",
"[  c #6A432D",
"{  c #7B442B",
"}  c #684336",
"|  c #784737",
" . c #77513D",
".. c #3F3D40",
"X. c #4A3E41",
"o. c #523F43",
"O. c #384042",
"+. c #484548",
"@. c #534145",
"#. c #594847",
"$. c #4D4C50",
"%. c #5A5658",
"&. c #544E53",
"*. c #664A47",
"=. c #764D42",
"-. c #795647",
";. c #67595A",
":. c #785854",
">. c #6E524B",
",. c #746158",
"<. c #625E62",
"1. c #6B686C",
"2. c #786B69",
"3. c #756F71",
"4. c #797678",
"5. c #5E605F",
"6. c #89131A",
"7. c #92121B",
"8. c #8F2B2C",
"9. c #A01A23",
"0. c #84422A",
"q. c #864936",
"w. c #89533B",
"e. c #925538",
"r. c #904933",
"t. c #855645",
"y. c #955E4C",
"u. c #965A45",
"i. c #885C54",
"p. c #8D554E",
"a. c #A25B43",
"s. c #89624A",
"d. c #9C634A",
"f. c #8A6758",
"g. c #996956",
"h. c #9B745E",
"j. c #A8674A",
"k. c #B56C4A",
"l. c #A56B55",
"z. c #B46D55",
"x. c #AB755A",
"c. c #B7785A",
"v. c #B5744E",
"b. c #957566",
"n. c #887678",
"m. c #8A6D6B",
"M. c #A67865",
"N. c #B47D64",
"B. c #B67A68",
"V. c #AB776A",
"C. c #C67A59",
"Z. c #C4724C",
"A. c #C47D64",
"S. c #B7825C",
"D. c #938177",
"F. c #AD836A",
"G. c #BA8668",
"H. c #A98475",
"J. c #B68876",
"K. c #BB9277",
"L. c #C88259",
"P. c #C38B6C",
"I. c #C78767",
"U. c #CC926D",
"Y. c #C8916A",
"T. c #D3946B",
"R. c #C68B76",
"E. c #C49373",
"W. c #CB9473",
"Q. c #CD9974",
"!. c #CD9A7A",
"~. c #C8957B",
"^. c #D39C74",
"/. c #D59C7A",
"(. c #D89878",
"). c #D38A6F",
"_. c #D4A27C",
"`. c #DAA37C",
"'. c #DAA579",
"]. c #7F7D80",
"[. c #807F82",
"{. c #9A7F84",
"}. c #888587",
"|. c #988787",
" X c #9A9599",
".X c #938D92",
"XX c #BA988A",
"oX c #AB958D",
"OX c #AFA298",
"+X c #A9A6A8",
"@X c #B4A8AD",
"#X c #B8B6B9",
"$X c #B3AEAF",
"%X c #AC9EA2",
"&X c #C89A86",
"*X c #D49C86",
"=X c #C29A90",
"-X c #CCA187",
";X c #D5A482",
":X c #DCAB83",
">X c #DBA38C",
",X c #DCAC8A",
"<X c #D8A587",
"1X c #DCB18A",
"2X c #C8A794",
"3X c #D8A894",
"4X c #DCB29A",
"5X c #C8B49F",
"6X c #E1AA84",
"7X c #E7B48C",
"8X c #E7B49B",
"9X c #ECB698",
"0X c #D8B7A3",
"qX c #C6BDBB",
"wX c #C9ABAA",
"eX c #E8BAA6",
"rX c #F4BCA8",
"tX c #D2C7B9",
"yX c #E6C3AB",
"uX c #EACBB4",
"iX c #FAC9B6",
"pX c #F9D3BD",
"aX c #F6C1AB",
"sX c #C2BEC1",
"dX c #C4C2C5",
"fX c #CAC7CA",
"gX c #CDCCD4",
"hX c #CFD1D7",
"jX c #D8D6D9",
"kX c #D4CBCA",
"lX c #FEDAC6",
"zX c #E8D8D1",
"xX c #FFE1CC",
"cX c #ECE6D9",
"vX c #DADCE1",
"bX c #E1DFE3",
"nX c #ECEAED",
"mX c #E6E4E7",
"MX c #F1EBEC",
"NX c #EFEDF1",
"BX c #F2EEF1",
"VX c #F4F2F5",
"CX c #FDFBFE",
"ZX c #F8F5FA",
"AX c #EBF0E9",
/* pixels */
". . . . X X X X     . $ . . $ $ = : * - * 3 j j 2 2 x x 5 v 6 b o . * 4 o o , o , 2 5 5 5 , O O O O O + . O O + + O + + + + + + ",
". . .   X X X     . . . . . . o . * i 4 4 4 < < 5 v O.x , 5 8 i f : 4 6 4 8 j 8 j j k k j 5 , O O O O + O + + + + + O + + O + O ",
". .   O X       . . . . . . . - - 1 1 1 * < 6 6 x N O.j 7 * i 1 p * * 3 ; 3 7 8 5 1 5 7 k j <     O   + + O O + + + + + + + + + ",
". + .         . .   . . . . + # 6 6 1 * 1 1 6 k b N b v b * l i 8 4 4 6 7 7 6 < * # * 1 7 6 *   + + O + + O + O O + O + + + + + ",
"  . X O . X + + O   + O . O O # 6 6 6 i i i < < j M b ~ k , i l < 6 k k k p 6 1 p p 4 6 6 1 - . + O   + + + + + + + + + + + + + ",
"X . . X . O O + +   O + O   # # < < 6 k k i 1 < b X.z m 1 < i < * 6 6 5 6 4 < 4 p p i 4 1 * + o +   O + + + O + O + O + + + + O ",
"X X X . X + O O # O O O + O O # < < < 5 6 6 i l m ~ k i i i k * j j j 3 j i 6 p 3 * 3 * - # # +   O + + O + + + + + + O O + + + ",
"X X X O + + O O + O O + + . + * 6 6 k k 5 , 8 k b l i i l 1 k b j j 5 , 7 k 4 i 3 ; * * * * # o + + O + + + O + O + + + + + + O ",
"X X     O + O O + , +   . $ $ $ 1 1 6 7 3 3 8 , l i p n f ; ; 8 O 2 j j 8 * 8 f 4 ; ; 8 8 ; o X + + + + O , + O + + + O + + , O ",
"X X O + O + , + O O   . . $ % 9 q - 1 : , @ 2 o 6 4 i p 8 ; 2 8 5 j j j 8 ; ; p : ; > ; 8 ; ; X + + + O O + O + + + O + + O O O ",
"X X O + + + + + O O   . $ % 0 u 0 % $ : ; 8 8 8 p 4 p : f v f f b k j 6 p a : a > 8 : : 8 ; o X + + + + O + + O O + O O + + + + ",
"X X O + + + O O @ O   . % 0 B A Z 0 9 q > o o o i - t $ > M 7 8 v v 1 * a f > > > t f f : ; ,   + + + O + + + O + O + + + + O + ",
"X   O O O + O O X X . % 9 0 S _ ` B 0 9 > > > o : = d - 1 n 4 - b W ~ a u n r t w s g f 4 ; # . + + O + + + O + + + + + + + + + ",
"X O O O O O O O X X o % 0 B F 8.8.S e 0 & > > > > q n u q a 1 i i *.' Y s Z w d h h n d a : - . + + + + O + + O + O + + + + + + ",
"  O O + + + O X X X o % 0 S F 8.8.D S V s r : o * q u u u z z n d >.} o.Y E Z E >.} Y h a 4 - . + O O + + + + + O + + O + + + + ",
"O O O + + O X X   X $ % 0 A 6.9.F F ^ |  .-.' R h s w g E ! *.! >.m.:.p.i.g.t.g.F.:.R g d i - . + + + + + O + O + + + + O + O + ",
"O O O O     O O # $ $ $ % B 7.9.6.D P 8.d.h.x.F.s.s.s.s.h.H.J.=XwX=X&XR.I.C.v.k.d.i.) n n i . . + + , . o O + o . . . . . O . . ",
", O O O   . X X . $ - % & B 7.7.G G P 0.u.j.j.S.G.G.G.Q.-X-X3X4XeX3X*X(.).Z.Z.k.l.g.E Y z 1 4 # + , # + O o + + O X + + X O . O ",
"O O O O . . X X + . $ % % V 6.7.F G 0.r.a.j.j.S.c.S.I.).!.!.*X&X*X&X).L.C.Z.k.a.a.p.} ~ n - . . . + + # + + O . O O . X @ . O . ",
"O O O O . . X X O $ = & & B 6.6.P L U r.a.j.k.j.c.c.L.A.I.E.W.W.R.I.).C.Z.Z.Z.k.j.| } T n d o : + + O . + @ . . + . O . . O . @ ",
"O O O X . .   X . . = 9 9 B F 6.D L ( r.a.j.v.Z.A.C.A.).I.I.R.).).T.L.L.L.Z.k.k.j. .) ! H & $ . $ + + o + + o . + + . O . + . X ",
"O X . X . .   X   . = q 0 B F F P / 8.u.d.v.c.C.C.A.A.A.).I.I.I.T.Y.T.L.L.v.k.j.q.d.[ [ h $ h r * # + O + + + + + + @ o @ + + + ",
"O O . . . .   X + . $ q e A F G L / | p.l.B.A.A.A.).).(.(.(.(.^.^.^.T.L.L.L.c.l.w.g.| / K } F.f.= # + o + # # + + o + + + + + + ",
"O O . X . .     #   $ q Z J G S e H ) p.g.B.R.R.).(.).(.*X*X>X,X*X_./.Y.G.c.x.j.u.w.t.I t.-XM.! : * + + + # @ o + + + + o + o + ",
"O O O + . o     o o * $ Z ` B 0 w $ w R =.M.J.B.&X&X*X*X3X<X>X8X4X&X&X*X&XJ.M.l.p.d.q.{ R.P.t.| a 3   + # * # + o + + + o + + + ",
"O O + . . X o X @ X - % Z ^ B e % & & w y ! f.J.B.=XA.&X-X2X2X2XXX2XoXb.f.t. .d.y.d.u.( l.R.z.s.& # o + # # # + + + + o @ + . + ",
"O O . . . . . o @   - % B A V Z r a t > w s H ) m.V.XX{.J.J.h.-.:.} W R H Z Z J q.d.e.( e.B.B.=.. + # # # + + # + # o + o + . X ",
"# + . $ o X . X @   - % S A V Z t : $ $ w r w y T p.g.t.[ E H y s & r Y a y y e { c.e.q.N.J.B.d . + # # + + o # + + + + . + + + ",
"@ O . $ o   o   @ @ . % S ` J r w h n Y R g r y y E ) J V V V y r w & Y ! ' )  .g.G.d.e.3X3Xi.% $ # # + # # + # + # o + O + . O ",
"X . . $ . o .   @ @ + % B ` ^ h t g ! >.>.E y 9 y ) i.=.-.-./ Z E g r h s } s.F.!.G.d.e.eX=Xn $ - # + o + # # + # + @ + o O @ . ",
"X X $ . X X o . @ @ o 9 B A ) ! H Z Z T ! ) T y y f.=X=XJ.B.p.^ b.m.D.b.R f.3XeX;XS.{ s.2X:.- . * # + + o + # # + # O + + + + + ",
"O O . $ . o . . @ X + & e A -.i.f.=.=.t.p.i.=.E T J.rX3X&X&X&Xx.-.f.>.-.f.yXuX8XQ.G.I x.OXh o @ . + # # # # + + + o . o + o   + ",
"+ + . . $ + o + @ + O = 0 Z ) i.B.B.B.l.l.V.t.T _ *XiX*X*X>X8X6X=XH.oX=X0XiXlX3X&Xg.^ J.XXa   o o + + @ # + # + + + + @ o o + + ",
"+ O - $ + $ + X @ @   $ $ y ^ q.l.B.R.B.V.l.{ L p.3XiX*X*X*X9XrXeXlXuXuXlXlX0XeX=Xg.^ oXD.a   X o + # # # + o + o + + + # + + + ",
"+ + - . $ + o O X @ . . % y A ^ p.l.z.V.B.y.J C y.8XlX*XR.).>XrXuXlXlXxXxXpXeX&Xg.^ =.=X! $ ;   o # # # + # o # + + o + + o o + ",
"O + # . . $ + . @ # - - 9 e V A A 8.p.l.l.| C T l.eXrX>X(.J.R.3XiXlXlXuXyX0X=XM.t.Z y s $ o   o + + + o # + + # + # + + + + + + ",
"O O + O o . . o @ # # . % e S S C L I 8.y.( C ( B.rXrX>X&XB.B.R.8XpXuX4X4X-XJ.2XH.H E 9 . :   @ + + + # # . # + + # o # + + # + ",
"@ @ O O . . + + O . # $ u Z _ =.w.| ( / ( L C d.&XrXrX>X*XB.z.R.*X8XeX8X-XK.2XlXJ.y f.;.= + , O # @ # # + # # + # + + + # # # # ",
"@ @ + + . o + + O   * = Y ) p.p.p.d.x.d.| V A l.R.rX8X>XR.A.B.I.>X<X8X4XK.-X0X=X} 9 r q = + O @ # # # + # # # + # + # # # + o + ",
"@ X X X o o + + , O * = g Z ^ ^ q.w.l.J.B.q.C _ V.>X>X*XR.A.B.B.W.8X,XF.~.uX-X} H d & - +   5 O @ # # o # + o + # # # # # # # # ",
"X @   ; . o . . , O   - % 0 A C C ( d.G.R.N.{ e [ c.x.{ l.*XB.N.!.9XE.F.aX3Xh.E t d . o O , O 2 #   3 O     +   o + + + + + + + ",
"X @   .   - - * O * . $ 9 e B e C C U { y.N.x.u.I ( J U l.B.B.P./.^.P.6X-XJ.s.s g . = p O O O O . # +   * +   8 o + + o o O O o ",
"X . . & . $ . . 1 5   . % u ^ _ ( e.j.d.e.e.d.l.W.x.w.l.x.e.l.G.^.S.U.9X&XF.} h & N dX+X2 O , O #   < 3 # . #   + + o + + + + + ",
"; . . = q % - l . O . $ 9 w T _ 0.r.e.u.x.G.E.Q.,X;XE.E.N.e.u.l.v.G.7X<X~.F.V g . M tXAX#XO k 1   O     + X + * + + O + + + + o ",
"i l z = $ u a - 1 O O $ $ 0 ) T ( 0.0.r.v.W.!._.Q.!.Q.G.K.j.L L e._.9XW.&Xg.y H n 4.8 v #X4.#  X X+.. , , X *   + O O o o + + + ",
";.~ u u u % z o.z , . . $ Y f.( C U r.j.I.^.`.7X6X1X_.Q.1XG.{ { S.7X_.E.!.-.E & ] D.5.O.O.mX$.4 4.#X$.    3 X + + o + + . @ o + ",
"{.{.:.u z *.{.{.~ 6 - $ ~ o.i.| e.k.k.v.T.6X6X6X;X_._._.1X:X~._.7X7XY.!.B.K H g 2.+.N @ x 1.fX;.8 %.D. X%.#   # o + O + O . + + ",
"sXwXwX{.{.n.m.;.&.b . . Y V J { r.I.*XT./.'.6X7X7X1X_.:X_.!.:XW.^.T._.;XM.! E qXOX8 X X X X 1.ZXNXsX X#X}.3.%.3 + + o + + o + + ",
"3.;.o.X.X.m k l b l = $ E J L 8.k.P.*X/.:X6X1X,X1X1X<X;X_././.^.T.T.'.-X-.>.zXtX*   # o   * . &.fX+XM x X 3 3.1.M 5 5   O     , ",
"< - - l X.M m M l m n w ^ / 0.j.c.R.(./.;X,X1X1X1X1X1X_.'.'.^.T.T.T.E.!. .oXdXj   4   b M * .   v 1.5.X 7 #   O , c 3 k <.M O   ",
"1 1 . . * i i j j   ~ ) V / v.c.I.U.^.Q./.;X:X1X1X1X:X_._.^.^.T.L.T.G.F.h D.MXD.k   +..X3.M 6 1 O N ]. XsX X4.$.c O   O c 1.1.5 ",
". 1 =     * < . + . $ Y K q.c.I.I.I.W.^.<X_._.1X'.1X:X_.'.'.T.Y.T.Y.G.h.h ,.kXVX X+.kXMX+X;.6 X.[.sXfXnXVXZXCXCXVXjX1.%.%.v M v ",
"4 1 ; * +     +   i & d Z ( M.I.P.Y.U.^.'.'.'.'.'.7X6X'.'.'.T.Y.S.S.K.[ R Q 4.ZXbXvXCXMXjX.X&.;.].$XvXnXVXmXNXCXCXNXCXCXZX+X,   ",
"+.<   ; 4 o       . $ R g H d.P.Y.Y.U.U.Q.^.^.'.'.'.'.'.'.(.U.I.S.S.h.H ' n v bXmXZXZXmXMXbXsX@XsXsXjXZX[.1.dXfXdXdX+X+.<.}.N 3.",
"mX}.M -     3 c i 1 o q [ ! / B.G.Q.Q.Y.Q.^.^.'.'.'.'.'.(.^.U.I.K.h.-.f.n.;.5 +XZXvXVXCXMXZXNXmXbXCXVXVX+., M 7 # 5   3 5 1.mXCX",
"vXmXkX.X#.#.;.%.+.N m $ % E } g.S.Y.Q.Q.^.^.T.^.'.'.^.^.^.U.Y.G.d.S.s.OX|.4.N .XCXZXBXZXMXVXbXNXgX$.X.O.k . , # 8 3 3 3 1.CXCXnX",
"bXhXfXqX Xn.1.;.X.W Q n d s E  .g.G.Q.E.Q._.^.I.Y.Q.'.Y.Q.Q.Q.K.S.s.K.;.f o c hXCXBXZXnXCXBXmX].+   3 + < 5 X 7 5   # M VXCXVXCX",
"jXhXfX#X|.n.;.o.M M W W R g H E  .x.E.Q.Q.!._._.'.S.S.Q.K.K.F.F.F.-.F.t o f x &.#XCXZXCXbXBXhX2 , j 3 , j # , # + 5 5 3.mX#XdX4.",
"vXhXdX@X|.3.;.W W X.X.X.R n H H [ s.F.K.E.E.!._.K.Y.S.K.yXuX5XK s.F.} > r ; 8 k vXNXBXCXnXBX X, 6   7 , O < 7 2 <   5 +.3.1.5.j ",
"jXgXqX+X|.2.;.Q @.o.X.Q ~ g n H !  .f.F.K.K.E.E._.Q.K.uX5X5X5XD.K s.f.' & p %.$.3.gXbXsX#X[.$.X.1.3.M M v O b b +.M M b M %.N j ",
"hXgXsX X{.;.#.W X.@.o.X.Q n g h Y R  .h.F.F.K.K.2Xs.5XuX5XOX5XtX[ [ b.f.Q - 3 +XsX1.@XfX+X+X.X+XdX+XdXNXdXjXmXVXNXVX$.< , , 5 , ",
"hXgX#X Xn.;.o.Q W o.@.W Q n n d w s R -.s.F.F.Q.s.K F.tXcXtX+XOX0X[  .-.>.m 8 p }. X+.M x 5 5 O c 1.}.nXCXnXvXnXnXCXN < c , 7 < ",
"gXgX#X.Xn.#.Q o.o.@.o.W Q Q n h $ & f K '  .s.D.[ K f tXcXjX+XtXxXK.F.D.D.n : 3   + O , 2 2 5 j j M .XgXNXZXnXNXCXsXj < j j k b ",
"gXsX@X.Xm.*.! ' o.@.o.o.@.] n a & o > f h [ [  .K K h R jXAXAXcXuX!.3XOXD.n.Q ; j O j 2 5 , j 2 j c O.N 3.]. X+XCX].  5 8 # #   "
};
