/* XPM */
static char *_3576_e4a1fa2ea40a5eeb008288e777a66cd1d4daa05fef09dfc9d6e2e28100f8f65e[] = {
/* columns rows colors chars-per-pixel */
"32 32 217 2 ",
"   c #080206",
".  c #130A0A",
"X  c #1A0A09",
"o  c #1B1517",
"O  c #251C1C",
"+  c #2A1E1A",
"@  c #281814",
"#  c #371D12",
"$  c #2D130A",
"%  c #39241C",
"&  c #29211F",
"*  c #1D1D22",
"=  c #221E23",
"-  c #281F20",
";  c #1B2129",
":  c #232123",
">  c #2B272A",
",  c #342B2B",
"<  c #3A2D2C",
"1  c #3C2B25",
"2  c #2B2932",
"3  c #342D33",
"4  c #332D38",
"5  c #2C3239",
"6  c #34353B",
"7  c #3B353A",
"8  c #3C393D",
"9  c #373335",
"0  c #431C12",
"q  c #481E08",
"w  c #46271A",
"e  c #5D301B",
"r  c #432E27",
"t  c #442B27",
"y  c #45332C",
"u  c #5D3A2C",
"i  c #593429",
"p  c #4C3A33",
"a  c #443D3E",
"s  c #483936",
"d  c #553A36",
"f  c #6A3A29",
"g  c #653E33",
"h  c #683019",
"j  c #57433E",
"k  c #4E413B",
"l  c #63463D",
"z  c #794B39",
"x  c #7E452A",
"c  c #3C3B42",
"v  c #393741",
"b  c #423D44",
"n  c #43444A",
"m  c #494449",
"M  c #594946",
"N  c #5E514E",
"B  c #4C4C52",
"V  c #534E53",
"C  c #55545B",
"Z  c #5A565C",
"A  c #59565A",
"S  c #4D5055",
"D  c #664C44",
"F  c #675148",
"G  c #7A5747",
"H  c #6C5D58",
"J  c #7D5E59",
"K  c #785E51",
"L  c #764E44",
"P  c #7C625B",
"I  c #74615A",
"U  c #5D5D64",
"Y  c #5A5760",
"T  c #615B63",
"R  c #5F6065",
"E  c #64636B",
"W  c #6A656C",
"Q  c #6B6A6E",
"!  c #656469",
"~  c #7A6765",
"^  c #7D716D",
"/  c #6C6C72",
"(  c #6A6772",
")  c #726C73",
"_  c #6E7279",
"`  c #737276",
"'  c #7B7476",
"]  c #74757C",
"[  c #7A757D",
"{  c #75787E",
"}  c #7A797F",
"|  c #83503B",
" . c #8D5C4C",
".. c #815749",
"X. c #895D54",
"o. c #935F4D",
"O. c #98694F",
"+. c #886657",
"@. c #946353",
"#. c #95675B",
"$. c #9E725A",
"%. c #8F705E",
"&. c #A7745A",
"*. c #B67C5C",
"=. c #A26D5D",
"-. c #846B63",
";. c #876861",
":. c #85716E",
">. c #8E7269",
",. c #977669",
"<. c #81767A",
"1. c #837A7D",
"2. c #877975",
"3. c #9A7C73",
"4. c #9C6B64",
"5. c #A77969",
"6. c #B67D6A",
"7. c #A36E68",
"8. c #83817E",
"9. c #8C827E",
"0. c #9A847A",
"q. c #AB856D",
"w. c #B68568",
"e. c #A48474",
"r. c #AC8373",
"t. c #A7897B",
"y. c #B38574",
"u. c #BC8A73",
"i. c #BA8C7B",
"p. c #B58878",
"a. c #B7927F",
"s. c #C2886A",
"d. c #C98D76",
"f. c #C99479",
"g. c #D59A7A",
"h. c #CF916F",
"j. c #D8A07F",
"k. c #7C7C82",
"l. c #777A82",
"z. c #827E83",
"x. c #847D86",
"c. c #7E8085",
"v. c #7D838B",
"b. c #75818F",
"n. c #7D8B98",
"m. c #838285",
"M. c #8D8383",
"N. c #83848A",
"B. c #8A868A",
"V. c #85898D",
"C. c #8D8A8C",
"Z. c #898887",
"A. c #958684",
"S. c #948985",
"D. c #948C8C",
"F. c #9C8D8B",
"G. c #968886",
"H. c #8D918E",
"J. c #858B94",
"K. c #8C8D92",
"L. c #858E98",
"P. c #918D94",
"I. c #8D9294",
"U. c #8B929A",
"Y. c #949195",
"T. c #94949A",
"R. c #9A989E",
"E. c #999399",
"W. c #AA8C85",
"Q. c #A79189",
"!. c #B89688",
"~. c #BC9C93",
"^. c #A49590",
"/. c #BCA094",
"(. c #9C9BA3",
"). c #9797A1",
"_. c #8595A5",
"`. c #A29EA5",
"'. c #9EA1A8",
"]. c #A3A3AA",
"[. c #A6A5AA",
"{. c #B5A9A8",
"}. c #ABA9B1",
"|. c #B7AEBA",
" X c #B3B2B6",
".X c #B3B4BA",
"XX c #C18C87",
"oX c #C69685",
"OX c #C99787",
"+X c #D39D84",
"@X c #D09A97",
"#X c #CDA38E",
"$X c #D7A38C",
"%X c #C7A697",
"&X c #D6A998",
"*X c #E4AC97",
"=X c #E7B39B",
"-X c #E7AB8F",
";X c #D9B6A8",
":X c #CEAFA8",
">X c #E2ADA3",
",X c #E8B8A6",
"<X c #F2BBA5",
"1X c #E4BDB3",
"2X c #FCC1AD",
"3X c #F3C3AD",
"4X c #EAC1B3",
"5X c #F5C5B4",
"6X c #F9C9B7",
"7X c #BFBFC7",
"8X c #C1BBC5",
"9X c #D1D1D7",
"0X c #C6C3C9",
"qX c #FFD9C7",
"wX c #FFCFC5",
"eX c #DBDFEA",
"rX c #E3DBE6",
/* pixels */
"8.8.m.m.m.v.v.l.; ; 5 5 ; 5 : 5 , + , k y j F 9 k H.I.J.H.H.m.H.",
"8.8.m.m.m.H.J.l.6 > ; ; : > O , j k r 1 j I H k 8 Z.I.C.I.I.Z.H.",
"m.k.m.m.v.V.V.l.* : . + + $ $ # l >.e.,.a.a.+.l k 9.H.H.I.I.v.H.",
"c.c.c.N.c.N.m.' k N + # # w F q.a.1X3X&X#Xq.O.| l F.D.H.H.I.v.I.",
"N.v.N.v.c.c.m.' H F.0.q.q.u.$X=X3X5X=X$Xs.w.&.O.G t.S.D.H.I.J.L.",
"n.v.v.V.N.Z.M.9.I 0.+.$.w.s.g.+X#X#X-X-Xg.h.s.O...0.0.D.H.U.J.L.",
"v.v.N.V.N.Z.Z.9.>.%.G &.*.w.h.h.$X,X3X=Xh.s.*.O.$.p.t.F.D.K.J.J.",
"N.k.N.V.m.Z.Z.9.9.-.+.q.u.s.h.+X&X6X5X$Xs.s.*.*.f.#XQ.Q.B.K.I.U.",
"k.m.N.N.N.B.M.S.^ 1 w G XX+X+X=X:X~.7...h x w.u.q.;X/.S.Y.C.K.K.",
"z.m.x.N.N.Z.B.Z.9.p w % i @.d.7.X.d 0 i  .u.$Xf.q.;X!.9.D.D.K.P.",
"1.z.z.m.N.N.Z.B.P.H j % $ 0 ..7.J ~ G L &.,X3Xy.q.:XQ.0.S.Y.D.K.",
"1.1.1.m.z.m.N.B.S.M.~ J ;.g #.<X1X%X!.%X4XqX5Xe.0.:XF.D.Z.E.C.C.",
"[ z.1.z.k.z.m.Z.1.G.:.:.W.#.x.wX1X;X1XqXqXqX;Xq.,.{.G.Y.B.T.C.K.",
"[ [ k.k.k.k.x.m.F.F.W.%X!.#.@X<X@X1X6XwX3X,X#X+.-.^.M.I.V.I.K.K.",
"[ [ l.k.k.k.k.m.1.:.3.!.W. .XX<X<X+XOX<X6X=X!.+.-.F.B.K.J.J.L.J.",
"] [ l.[ k.k.z.m.M.A.-.,.6.@.d.<X$X*X*X<X=X&Xi.L -.F.D.K.U.v.U.J.",
"` ` c._ l.] v.k.x.x.<.X.7.g g @.7.@X>X>X=XoX6.G >.Q.9.S.V.L.n.n.",
"_ ! Q l.l.{ ] k.<.x.x.;.X.g i 4.@X@XXXXX&XoXX.z e.0.F.M.I.).b._.",
"{ / Q ] _ _ k.v.F.x.<.l D l i ..o.7.x.s.i.5.z $.,.;.P 2.B.V.U.n.",
"H Q } _ ] _ l./ T s s X t D g G 7.6.d.6.&.| z q.i.%.P 1 A ).v.U.",
"Q Q Q Q / / c * = X ,   $ p g X.4.=.6.u.o.f O.f.q.q.%X~ X m Y.{ ",
"E ) E E c v   n 4 = y X $ p d i  .XXoX=.f z a.w.q./.Q.y N D.8 ! ",
"W m n 8 U / 2 / b = - X @ p j w f z f q h 5.$Xt./.!.l 1 :.[.C R.",
"4 7 z.B T.] c [ n 7 7 o   @ M j i w f ..r.!.a.&X/.F 1 j <.}.Z .X",
"= [ P.Z }./ E (.n B k . O & X p D K 3.W.%X~.>Xx.r 1 s m Y.E.Y  X",
"B x.Z B.P.U .X].A ] > * 9 & o + > y F F ~ L l t ~ ~ , Z B.N.E '.",
"3 P.T `.[./ ].k.C c.> C ` 8 m . @ + - < , 3 t b ' ' a C U L.( eX",
"T `.( [.0XR k.k./ I.6 I.8.U M., 9 3 7 V y 3 b x.` Y.3 A (.)._ ).",
"Z.'.R '.R.{ .X/ { J.C 9XW k.).4 c 7 V c = 4 x.9X) 8XT b (.l.( `.",
"'.{ R R.U '.R.n C C c.9X[ z.`.> 7 n B.B b 2 x.x.T 8X`.b [.K.E .X",
"7XR l.[.n _ 5 S S 6 k.`.( [ ].v c B x.U 2 v |.x.T rXE.B ) V ! .X",
"A S U.}.5 n n n B B ( |.Y P.J.2 ( l.x.`.4 V }.( z.|.) 7 Z Q 9 ' "
};
