/* XPM */
static char *_5157_a6dc11deb47127cd1434d1ee6f3693d5637b1140782df60fcef782213ab17571[] = {
/* columns rows colors chars-per-pixel */
"32 32 213 2 ",
"   c #040304",
".  c #0A0403",
"X  c #050904",
"o  c #0A0805",
"O  c #06060A",
"+  c #0B050A",
"@  c #03090A",
"#  c #0A090C",
"$  c #130201",
"%  c #1C0503",
"&  c #120907",
"*  c #11060D",
"=  c #140B0C",
"-  c #1A0D0C",
";  c #1D0D07",
":  c #0A100E",
">  c #1E100D",
",  c #0C0410",
"<  c #0E0C11",
"1  c #130C13",
"2  c #1A0D16",
"3  c #141115",
"4  c #1C1312",
"5  c #1A151C",
"6  c #1C1A1D",
"7  c #18181B",
"8  c #220501",
"9  c #250903",
"0  c #2A0C03",
"q  c #2B0E0B",
"w  c #20060F",
"e  c #310C04",
"r  c #330100",
"t  c #23120D",
"y  c #29170A",
"u  c #24180C",
"i  c #39130C",
"p  c #32170E",
"a  c #2B0E12",
"s  c #251312",
"d  c #2B1612",
"f  c #251E1B",
"g  c #291D15",
"h  c #371A15",
"j  c #1E211C",
"k  c #31241C",
"l  c #3B2315",
"z  c #1F1C22",
"x  c #1C1624",
"c  c #221E23",
"v  c #261F24",
"b  c #1E2223",
"n  c #252226",
"m  c #2A2A2C",
"M  c #282528",
"N  c #3A292C",
"B  c #392824",
"V  c #2C2A32",
"C  c #322D33",
"Z  c #363236",
"A  c #35353C",
"S  c #3B3638",
"D  c #430C00",
"F  c #4C1608",
"G  c #441E15",
"H  c #561D11",
"J  c #4B2915",
"K  c #47221C",
"L  c #522017",
"P  c #663018",
"I  c #472926",
"U  c #4C3427",
"Y  c #5A312A",
"T  c #54362E",
"R  c #473838",
"E  c #523331",
"W  c #562D27",
"Q  c #733D2C",
"!  c #653A2C",
"~  c #4D423C",
"^  c #6E4122",
"/  c #68463A",
"(  c #724C39",
")  c #7D543E",
"_  c #3C3B41",
"`  c #473D44",
"'  c #553E44",
"]  c #444145",
"[  c #44454B",
"{  c #4A464B",
"}  c #4C4A4C",
"|  c #494345",
" . c #5C4B44",
".. c #544249",
"X. c #554B48",
"o. c #4D4B52",
"O. c #524B51",
"+. c #5B4A52",
"@. c #555153",
"#. c #5B555C",
"$. c #5D5B5D",
"%. c #595556",
"&. c #674B42",
"*. c #685348",
"=. c #7F594B",
"-. c #715753",
";. c #5C5B61",
":. c #635C61",
">. c #725C64",
",. c #6C6565",
"<. c #646469",
"1. c #68656A",
"2. c #7B7374",
"3. c #75767B",
"4. c #797479",
"5. c #824938",
"6. c #915C3A",
"7. c #86502A",
"8. c #855348",
"9. c #9A5E4D",
"0. c #8D5C51",
"q. c #884F44",
"w. c #8F6147",
"e. c #886255",
"r. c #986859",
"t. c #9F6A48",
"y. c #A47259",
"u. c #9C6C61",
"i. c #976860",
"p. c #99766C",
"a. c #837C7E",
"s. c #8F7A70",
"d. c #A4756A",
"f. c #B87A64",
"g. c #A67D73",
"h. c #A36D63",
"j. c #8F807B",
"k. c #968177",
"l. c #A8846B",
"z. c #BA8A6C",
"x. c #A88B7A",
"c. c #BD8C7A",
"v. c #B18A77",
"b. c #BD937D",
"n. c #C38E66",
"m. c #C68E7C",
"M. c #C3937C",
"N. c #C59372",
"B. c #D39D7E",
"V. c #D9A27A",
"C. c #7D7B82",
"Z. c #868285",
"A. c #8E898D",
"S. c #898589",
"D. c #9C898D",
"F. c #8C8E92",
"G. c #928D91",
"H. c #949395",
"J. c #9D999F",
"K. c #9C9498",
"L. c #A5969D",
"P. c #A7958B",
"I. c #9EA39F",
"U. c #B7A39B",
"Y. c #A19EA3",
"T. c #AD9CA5",
"R. c #A8A5A9",
"E. c #BFB0AB",
"W. c #ACABB0",
"Q. c #B1AEB2",
"!. c #B7ACB4",
"~. c #B5B2B4",
"^. c #BDBABC",
"/. c #B8B4B9",
"(. c #C29984",
"). c #CA9B80",
"_. c #D89D88",
"`. c #D89E92",
"'. c #CBA287",
"]. c #D5A186",
"[. c #DCA684",
"{. c #C9A495",
"}. c #D6AD95",
"|. c #D6B19C",
" X c #E2AB85",
".X c #E4AE8B",
"XX c #E5B29D",
"oX c #C2AFB3",
"OX c #CAB5BA",
"+X c #E3B8AA",
"@X c #DEC4B7",
"#X c #F2CEB9",
"$X c #BABAC1",
"%X c #C3BDC1",
"&X c #C7C4C7",
"*X c #D9C8CA",
"=X c #D8D0CE",
"-X c #CBCAD1",
";X c #DDDCDD",
":X c #D6D5DA",
">X c #D9CED6",
",X c #F4D0C0",
"<X c #E5D6DC",
"1X c #DCDBE0",
"2X c #E3DCE2",
"3X c #EDEAEB",
"4X c #F2E6EA",
"5X c #EEEAF2",
"6X c #F6EBF1",
"7X c #F6F4F6",
"8X c #FFF4F9",
"9X c #FEFBFE",
"0X c #FFF6F5",
/* pixels */
". . . X .     . O   ,       O   1 , # . + $ . + . O X X X X   X ",
". . .     . X X     @ O # O 3 1 1 1 * 2 * * + . . O X X X X O   ",
".   . . .     O + . . # O 1 4 5 b x 3 1 1 * * # O X O O   O O . ",
". . . X O O O   . #   . . > > f M b 7 2 2 5 3 # O O O O O O + + ",
". X . O . O O .   * . $ $ s a B j j j 6 6 f 2 O @ , @ @ O , , , ",
". .   . O O O   . & . $ ; 9 % a u 7 4 > - > - # @ @ , @ , , , , ",
"O + + + O O O + + * $ $ a p 8 9 u g g y u s > . + O O , O , , , ",
"+ o O O O O O + . $ % % I K i i 0 l U T E I d . . O O O O O + + ",
". O O O O @ # O . . w 9 E Y i.h.r.m.).g.d.&.8 % $ o o X X X o + ",
". X O . O # O # . $ $ 8 W / h.h.m.m.(.c.u./ i . $ . o X X X . o ",
". . . X O @ @ O . & $ q G ! h.`._._.`.(.r.8.0.E $ o o X X X X X ",
". . O X @ O @ @ . $ $ q r r H 9.f.f.9.5.Q 8.p.I % o o o X X o X ",
". X . X X @ @ @ * . $ 0 W L F H 5.P D F 0.g.s.% & o o # X o o . ",
". . X . @ X @ X # . $ 0 =.u.q.5.XX).c.`.+Xg.&.. & o # # o o . # ",
"o . X X X @ @ @   & $ 8 W 0.q.r.+X{.#X,X{.E a . . # , @ + + * * ",
". . . X X @ @ @ O & . h W q.Q y.}.l.|.{.x.k s & # # # # , + * + ",
"&   >   O : ,   # . $ % J w.t.7.6.z.b.}./ > =   # #   O 1 # + + ",
". . . o @     M + * t 9 ! ^ n.V.n.6.M.v.l j.,.] 6   6     # ,   ",
"$ s . o @.H.W.A.:.:.d e ( t.[..X[.N.'.l.*.k f I.#.n   3 O   , < ",
"% . N H.OX4.4.V 2 N t U r.]. X[..Xz.b.l.k.B Z S C.3.} Z z #   @ ",
"$ >.OX*XL.' C.O.% $ a I g.M.B.[.V.'.l.( x.0X&XR.5X~./.2.1.O.  3 ",
"- D.T.<X8X8X8X5XT.' I h =.b._._.'.z.l.~ j.0X3XZ.z   O Z.9X9XV   ",
">.*XoX4X6X5X>X>X!.>.' E K r.b.N.}.M.e.p ~ =X-XS [ } ` %.c ;.1.@ ",
"&.T.oX6X8X6X5X2XL.` ' E h J e.) v.#Xx.-.B ~ j ] Q.7X/.  z   3 O ",
", . :.K.Z.Z.A.%XR.#.+.` I 8 0 J ( {.@XU.` < V < O V Z.A.A.M O # ",
"v C #     #   A C.#.` ' g I y U / x.U.E.S.$X1X-XW.&X&X9X2X}   + ",
"J.O.` H.m } $.n 1 O O A M ~ u U / k.U.X.] $XR.<.^.7X3X7X9X;.` , ",
"1XS.R.7XS.I.-XF.F.o.A #.>.%.g k k  .k.a.6 [ $X<.@.9X9X9X9X:X1X[ ",
"-XI.&X:X;X3X~.[ [ <.Q.1X~.,.j u & / *X@XF.[ 7XC.n Q.L.Y.W.1X9X_ ",
":XC.C.1.^.;X3.X # , x V n $.S u . ~ 3./.C.:X$XO < 7       m /.1.",
"-XC.$.$.^.Q.Z j c v 1 , . a.@.. & k X.;Xx _ S.x n 6 C 2.c   M _ ",
"5XA.$.G.^.~.n X , x x x 6 R.S.f ; > S %XC.@ [ 3.;.@ v a.Y.3.o.V "
};
