/* XPM */
static char *_0908_61c4de0b0df30f61c0399a6a2a6a2e66c677c93c9d17a13b045b68d63a039eb2[] = {
/* columns rows colors chars-per-pixel */
"32 32 223 2 ",
"   c #010003",
".  c #02020D",
"X  c #0C070A",
"o  c #02021C",
"O  c #080816",
"+  c #120B19",
"@  c #171419",
"#  c #1C1A1E",
"$  c #181418",
"%  c #0E181A",
"&  c #230707",
"*  c #2D1515",
"=  c #00002D",
"-  c #060425",
";  c #14152A",
":  c #181525",
">  c #010234",
",  c #00013D",
"<  c #070A34",
"1  c #191633",
"2  c #221E23",
"3  c #281C26",
"4  c #1D2027",
"5  c #2D2B2E",
"6  c #252326",
"7  c #362629",
"8  c #282736",
"9  c #332D31",
"0  c #382B34",
"q  c #363539",
"w  c #3B373B",
"e  c #3C3B3E",
"r  c #373236",
"t  c #492D2A",
"y  c #4B383A",
"u  c #41413B",
"i  c #000244",
"p  c #00044C",
"a  c #090B4B",
"s  c #050B48",
"d  c #091249",
"f  c #151845",
"g  c #050757",
"h  c #0C1454",
"j  c #0A1557",
"k  c #151A56",
"l  c #1B2252",
"z  c #1D275A",
"x  c #1B204A",
"c  c #292846",
"v  c #3E3C41",
"b  c #393846",
"n  c #292C5A",
"m  c #2A315D",
"M  c #38365B",
"N  c #050865",
"B  c #091465",
"V  c #151D6B",
"C  c #130E76",
"Z  c #161970",
"A  c #1B2565",
"S  c #182269",
"D  c #1F2876",
"F  c #1E3465",
"G  c #272C68",
"H  c #2D3364",
"J  c #393A68",
"K  c #252D74",
"L  c #2D3977",
"P  c #343C75",
"I  c #433C46",
"U  c #543E42",
"Y  c #3F4352",
"T  c #384365",
"R  c #3B4776",
"E  c #444246",
"W  c #454449",
"Q  c #4A454A",
"!  c #4B4A4E",
"~  c #4C4844",
"^  c #544446",
"/  c #554447",
"(  c #4F4D50",
")  c #464757",
"_  c #554B54",
"`  c #4E5358",
"'  c #555455",
"]  c #56555A",
"[  c #5A565B",
"{  c #5C595B",
"}  c #585755",
"|  c #51504E",
" . c #644B4A",
".. c #685859",
"X. c #765A56",
"o. c #6C504C",
"O. c #66675D",
"+. c #7E6159",
"@. c #474A68",
"#. c #4C5368",
"$. c #595968",
"%. c #454B76",
"&. c #495879",
"*. c #5B5D73",
"=. c #565B7A",
"-. c #625C62",
";. c #615A69",
":. c #605D78",
">. c #5D6262",
",. c #5F6A64",
"<. c #5E6276",
"1. c #656364",
"2. c #646469",
"3. c #69676A",
"4. c #6C6A6D",
"5. c #686A67",
"6. c #766769",
"7. c #73746E",
"8. c #6E6C72",
"9. c #6A6C7B",
"0. c #666676",
"q. c #716D73",
"w. c #706E7C",
"e. c #6E737D",
"r. c #6D7575",
"t. c #747274",
"y. c #797575",
"u. c #7A7975",
"i. c #74747C",
"p. c #79747C",
"a. c #7B7B7B",
"s. c #747D78",
"d. c #6D726E",
"f. c #82787D",
"g. c #947874",
"h. c #7A8577",
"j. c #82827B",
"k. c #828A7B",
"l. c #293785",
"z. c #343B81",
"x. c #33398D",
"c. c #34378C",
"v. c #394587",
"b. c #3C498B",
"n. c #424686",
"m. c #4A538E",
"M. c #485387",
"N. c #545987",
"B. c #4C5897",
"V. c #535E93",
"C. c #444E93",
"Z. c #5A6287",
"A. c #5A6697",
"S. c #696B84",
"D. c #6B738A",
"F. c #6A7385",
"G. c #737483",
"H. c #7C7B82",
"J. c #7C7E8A",
"K. c #767785",
"L. c #646B96",
"P. c #747A90",
"I. c #777A97",
"U. c #6C7197",
"Y. c #4956A5",
"T. c #5363AA",
"R. c #5561B3",
"E. c #7879A6",
"W. c #6970A7",
"Q. c #837986",
"!. c #7E8189",
"~. c #7A879C",
"^. c #7782A9",
"/. c #7D8BB8",
"(. c #848486",
"). c #8B8B8D",
"_. c #848789",
"`. c #8E968B",
"'. c #868597",
"]. c #918D93",
"[. c #96959A",
"{. c #9B8681",
"}. c #A79692",
"|. c #8589A7",
" X c #8795A6",
".X c #8391B3",
"XX c #969AB9",
"oX c #9090AC",
"OX c #A19FA2",
"+X c #99A7BC",
"@X c #A7A6A8",
"#X c #ADAAB7",
"$X c #B1AFB2",
"%X c #B5B3B6",
"&X c #B7B5B8",
"*X c #B9B7BA",
"=X c #BCBABD",
"-X c #B6B9B9",
";X c #BDC3BF",
":X c #99A4CD",
">X c #A5ADC7",
",X c #ACBCCB",
"<X c #BEBDC1",
"1X c #B7B9C7",
"2X c #B6BBDA",
"3X c #A9B0D7",
"4X c #ADB7E5",
"5X c #B3BBE9",
"6X c #8C92C4",
"7X c #C0BEC1",
"8X c #BBC2C5",
"9X c #BBC7D9",
"0X c #AFC0CA",
"qX c #BDC7E7",
"wX c #BDCBF2",
"eX c #C3C2C5",
"rX c #C6C3C9",
"tX c #C8C6CB",
"yX c #C6CBD8",
"uX c #D1CDD3",
"iX c #C7D3D6",
"pX c #CDD3F7",
"aX c #C7D2E1",
/* pixels */
"`.8X<XyXG.0 M ; O 8 r.iX8X;X=X7X7X=X=X=X<X=X*X&X&X7X7X=X=X7XuX(.",
"@X;X*X[.: . + . . . % ,.-X8X7X%X7X7X=X<X7X7X7X7X7X7X=X&X7X$X[.q.",
"h.!.[.8.+ + . . .     b 8X$X<XrX*X=X=X=X&X&X&X&X=X&X=X7X8XOX[ y ",
">.| d.p.;.$.0 0 2 #   r tXeXrX@X<X7X7X7X=X=X7X7X=X=X&XtX@Xi.r # ",
"$.) _ ..f.f.6.6.[ U + @ G.#XuX<X*X*X=X7X7X7X7X7XeXeX%X=Xa.Q r # ",
"Y I I I y U o. .y y 7 5 I [ ].tX<X<X=X=X=X=X=X*X=XeX*X&X3.5 w # ",
"! q ) [ 7 t t & & * 0 / -.U W a.tX7X7X=X<X7X7X7X&X=XeX$Xd.5 6 6 ",
"` : U }.o.g.o.* * y / 0 -.3...(.$X@XOXOX@X&X=X=X<X*X8XOXt.9 $ 9 ",
"b 4 q [.k.}.g.g.g.X.u y { 5.u.a.t.! q.).].%X7X%X*X=X*X*X1.$ $ 6 ",
"Y q r y.X. .* o. .t U g...5.{ j.t.E E t.OX$X%XeXrX7X*X=Xt.9 2 2 ",
"@.P.i.{ U y 7  .U 3 Q I u u } u.5.} ! q.).q.1.a.@X].).[.d.E 5 2 ",
"S.7X>XI 0 7 * 3 3 3 $.Q ! q ~ O.( y 6 { @X@X(.{ (.3.' 3.' ! E w ",
"pX2XS.1 6.Q.U : - :.*.#.) t.' u >.8.2.4.8.4.a.3.1.( Q { ' } E q ",
"5XE.M - _ @.c 1 - |.XXP.<.H.h.j.u.3.8.4.( ( 4.3.3.] } -.{ t.4.3.",
"4XA.J x c 1 - - f f m %.|.e.>.5.7.$.4.4.1.3.4.8.t.] W e w 3.a.(.",
"5XN.J J G < = f k s z k R K.5.5.5.5.u.4.4.p.q.t.p.4.u.u.4._.p.q.",
"1X~.P K b.g h s j k D l.j R ~.1.O.O.7.u.G.f.p.Q.f.y.u.j.j.a.H._.",
"yX Xk l.x.x.s j L B.x.D S k T K.7.7.y.t.p.p.p.q.y.y.j.j.a.h._.!.",
"9X>X%.S S b.j A R V.B.F j s V W.oXG.8.p.H.q.q.f.q.y.u.t.K.(.K.2.",
"+XpX3XP g K L K L A.^.H s p N l.m.E.Q.S.0.p.h.t.f.y.Q.H.K.(.i.#.",
"L.4XqX^.z k L B S W./.z f g g C g n.E.U.w.y.y.d.H.w.P.Q.K.K.i.2.",
"=.I.9X9X.XG b.Z g v.Z.l d , N C N g G Z.Q.w.t.H.q.) I $.;.w.t.$.",
"R T  X0X,XR z.B Z Z H z f > s i g g a l %.S.Q.G.) 1 O 8 b $.8.[ ",
"L.Z.P.0X0X>Xm.Z N S d d =.c < > i a a a k J S.^.c o o ; @ v 0.8.",
"Z.Z.&.~.9XqX:XV.s S G m S.D.#.; = , a a a k H %.n o o . O X 1.a.",
"A.M.L.A./.wXwX4XW.l H &.<.9.G.0.=.m > , i h k n < o . .     y 4.",
"v.m.v.L b./.4XqX0X>X&.) I.<.$.G.9.D.W.N.G i , a 1 o .   X   X { ",
"V C.Y.Y.v.R ^.+X9X;X9X X=.D.K.$.e.F.U.6XQ.W.P f < o . .     X 8.",
"B V Y.R.T.T.R &.~.9XiX9XXX9.9.9.0.r.S.D.~.^.^.U.=.) 8 O $ ] I w ",
"g B l.Y.Y.B.&.&.Z.D.:XqXqX>XS.G.r.F.F.9.F.K.J.D.P.I.Q.0.W [ r $ ",
"N B s S b.M.A.&.P n.m.6X3XyXrX[.9.G.!._.!.h.r.s.0.2.0.S.*._ 3   ",
"N N j d d F F v.m.Y.x.R S.>X;X8X#X'.!.).`.k.h.!.K.G.;.*.0.;.I X "
};
