/* XPM */
static char *_2579_3acce02f378de3c7a5682dd45b69e1a9196d7b8c01aded6fb69a504cdff6a8ca[] = {
/* columns rows colors chars-per-pixel */
"64 64 243 2 ",
"   c #030103",
".  c #0B0204",
"X  c #03010C",
"o  c #0B070B",
"O  c #160507",
"+  c #010112",
"@  c #02021C",
"#  c #0B0818",
"$  c #140E17",
"%  c #191518",
"&  c #240D17",
"*  c #27181B",
"=  c #2B1116",
"-  c #020223",
";  c #01022D",
":  c #080924",
">  c #1A1829",
",  c #01023C",
"<  c #060837",
"1  c #191934",
"2  c #0F1027",
"3  c #201E21",
"4  c #2A1B24",
"5  c #2A1C2E",
"6  c #1D2435",
"7  c #2A2629",
"8  c #2C2A2D",
"9  c #252326",
"0  c #35262A",
"q  c #2A2938",
"w  c #332D31",
"e  c #392C37",
"r  c #343234",
"t  c #3A363A",
"y  c #3C3A3D",
"u  c #393438",
"i  c #2F3138",
"p  c #432A2E",
"a  c #482B35",
"s  c #46373A",
"d  c #52393B",
"f  c #010244",
"g  c #01024B",
"h  c #060A47",
"j  c #0B1449",
"k  c #171B4B",
"l  c #000254",
"z  c #030B55",
"x  c #00045C",
"c  c #020A5B",
"v  c #0A0D5A",
"b  c #0A1559",
"n  c #141B58",
"m  c #192458",
"M  c #162253",
"N  c #2A2A46",
"B  c #2D3247",
"V  c #3A3942",
"C  c #252A5C",
"Z  c #363856",
"A  c #303157",
"S  c #000363",
"D  c #020B62",
"F  c #03076A",
"G  c #0C1564",
"H  c #0B146B",
"J  c #081767",
"K  c #141B66",
"L  c #070876",
"P  c #121C73",
"I  c #0D1771",
"U  c #172467",
"Y  c #192877",
"T  c #132672",
"R  c #222769",
"E  c #293569",
"W  c #333969",
"Q  c #232C76",
"!  c #273779",
"~  c #363B76",
"^  c #423E41",
"/  c #493B43",
"(  c #543A44",
")  c #3C4255",
"_  c #29437D",
"`  c #384579",
"'  c #3A436B",
"]  c #444245",
"[  c #464449",
"{  c #4A464A",
"}  c #4C4A4D",
"|  c #4C4244",
" . c #57464A",
".. c #4D4C51",
"X. c #464558",
"o. c #524D52",
"O. c #5B4B55",
"+. c #545255",
"@. c #5A565A",
"#. c #5C5A5D",
"$. c #56555A",
"%. c #4E5157",
"&. c #624E56",
"*. c #6C535A",
"=. c #65585A",
"-. c #685052",
";. c #66615F",
":. c #5E5D60",
">. c #5A5969",
",. c #444A75",
"<. c #4A547A",
"1. c #575B76",
"2. c #494C69",
"3. c #625C62",
"4. c #675B67",
"5. c #735D64",
"6. c #655D73",
"7. c #5D646E",
"8. c #5B6579",
"9. c #646265",
"0. c #65646A",
"q. c #6A666A",
"w. c #6C6A6D",
"e. c #686768",
"r. c #726C6C",
"t. c #776569",
"y. c #74716D",
"u. c #7A726B",
"i. c #646573",
"p. c #6C6C73",
"a. c #6B6D7B",
"s. c #656878",
"d. c #726E72",
"f. c #796E76",
"g. c #6D727C",
"h. c #6A7177",
"j. c #747275",
"k. c #797473",
"l. c #74747B",
"z. c #78767B",
"x. c #7B7A7D",
"c. c #797978",
"v. c #6C716B",
"b. c #826D73",
"n. c #867678",
"m. c #957B7C",
"M. c #1D2982",
"N. c #263588",
"B. c #343D86",
"V. c #2F3A90",
"C. c #1B1987",
"Z. c #2C4384",
"A. c #3C4C8C",
"S. c #374785",
"D. c #394995",
"F. c #395295",
"G. c #384C8F",
"H. c #454B85",
"J. c #44538C",
"K. c #4C5686",
"L. c #555B87",
"P. c #434C93",
"I. c #4B5E9B",
"U. c #465896",
"Y. c #545A95",
"T. c #5B6488",
"R. c #4A6298",
"E. c #5A6597",
"W. c #6B6D83",
"Q. c #656988",
"!. c #6D7183",
"~. c #6B7489",
"^. c #747483",
"/. c #7C7B82",
"(. c #777988",
"). c #686C96",
"_. c #6B7494",
"`. c #767A97",
"'. c #716883",
"]. c #495BA3",
"[. c #555EA8",
"{. c #4D64A0",
"}. c #5567A5",
"|. c #576CB5",
" X c #7578A3",
".X c #6971A5",
"XX c #817E81",
"oX c #877D86",
"OX c #8D7D8E",
"+X c #7E8087",
"@X c #7D8195",
"#X c #7B83A5",
"$X c #848284",
"%X c #84848A",
"&X c #89868A",
"*X c #8B898B",
"=X c #878897",
"-X c #948E94",
";X c #989699",
":X c #938A8E",
">X c #A6989B",
",X c #868AA7",
"<X c #9798A7",
"1X c #8E94B1",
"2X c #A39FA2",
"3X c #99A2BD",
"4X c #9FA5A5",
"5X c #A8A6A9",
"6X c #A9A9B5",
"7X c #B1AEB1",
"8X c #B4B3B5",
"9X c #B7B5B8",
"0X c #B9B7BA",
"qX c #BDBBBE",
"wX c #B5B9BB",
"eX c #B0B1B6",
"rX c #9EA09F",
"tX c #C1BBBF",
"yX c #C0B6B5",
"uX c #BCC3B9",
"iX c #A6ABC6",
"pX c #ADB4C7",
"aX c #BDBDC2",
"sX c #BBBDCB",
"dX c #B3B9C7",
"fX c #B7BCD5",
"gX c #ABB1D6",
"hX c #A1A5C9",
"jX c #C1BEC2",
"kX c #C0BECB",
"lX c #C0BFDE",
"zX c #BCC1CC",
"xX c #BDC2C2",
"cX c #BCC4D7",
"vX c #BAC3E3",
"bX c #C3C2C5",
"nX c #C2C4CC",
"mX c #C7C8CB",
"MX c #C4CBDC",
"NX c #C4C7D7",
"BX c #D0D2DD",
"VX c #C6CBE3",
"CX c #CFD1E4",
/* pixels */
"@.qX8XtXaXkXeXkXNX=X) B B B k 6 1 1 1 8.iXnXnXaXaXjXjXjXtXtXtXtXtXqXqXqXqXqXaXqXqXqXqXqXtXqXqXqXqXqXqXaXqXqXqXqX8XqX8X8XtXqX8X$X",
"k.bX0XbXjXaXsXkX>.B > N Z B 6 @ - 1 : @ B =XNXjXaXjXjXjXtXtXtXtXtXqXqXqXqXqXtXqXqXaXqXqXqXqXtXqXqXqXqXqXqXqXqXqXbXqX8XxXqX8X;X#.",
"*XmXbXtX7XaXnX<Xt 1 # > > 2 + + @ + + @ X % i.jXjXjXjXtXtXqXqXtXqXqXqXtXqXqXqXqXqXqXqXqXqXqXqXqXqXqXqXtXqXtXqXqXqXqXtXqX9XbX5X] ",
"XXtXqX5X2X9XkX%.> $ # # @ + @ # # + + $ # X # 9.kXjXtXtXqXqXtXqXqXqXqXqXqXqXqXqXqXtXqXqXqXaXqXqXqXqXqXqXaXqXqXqX0XbXbX7X;X;Xc.w ",
"n.5X5X;X-X8X0Xt X X X # o X X X X $ X X $ o   +.jXjXqXqXqXqX0XbXqXqXqXqXqXqXqXqXtXqXqXqXqXaXqXqXqXqXqXtXqXqXqXqXwXqXeX-Xp.+.] u ",
":.w.w.w.e.*X&Xq 3 $ . X X . o X X # X X o     $XmXjXqXqXqXqXqXxXqXtXqXqXqXjXqXqXqXqXqXqXqXaXuXqXtXqXqXqXqXqXqXqX8XbX8Xw.y ] y r ",
":.e.7.e.3.*Xn.o.oXf. .0 $ O . . o O X .   o . +.bXtXyXqXxXqXwXqXqXqXqXqXqXqXqXqXaXqXqXqXqXtXqXqXqXqXqXqXqXqXqXtXbX0X8Xe.7 y V % ",
"+.e.;.#.o.*Xj.=.w.b.oXb.5. . .O.s 0 0 w . . . s mXtXqXjXaXqXwXqXaXqXqXaXqXtXqXqXqXqXqXqXqXqXqXqXqXxXqXqXqXaXqXqX8Xj.&Xx.r u u o ",
"+.e.} ^ +.n.u.e.t.n.b.t.u.b.5.*.-. .s d 0 O   t qX5XwXmXqXwXxXwXuXjXqXqXbXqX8XbX0XbXbXqX0X0XqXtXqXqXqXqXjXbXqX8X5Xj.t [ { w 9   ",
"+.+.] ^ s @.=.u.t.n.b.*.-.*. . . .| s d 9 % . s #.t *X8XqXxXxXwXaX0X0XqXqXjXjX0X0X0XqXqXbXbXqX0XqXqXqXqXqXqX0X8X-X{ } [ 9 u r o ",
"+.{ ] y ^ +.0 % 0 O.t.u.b.*.5.b.*.-. .| 0 O O 7 u u { $XbX5XxXuXaX0XjXjX0XqXbX8XbXqX0XqXtXqXqXqXtXqX0XqXqXqX0X0Xy.%.r r 8 u ) % ",
"{ } +.t w =.| 0 4 * * ( 5.b.-. .s p p p s 0 * { @.w ] x.9.#.wXuXqXjXbXqX8X8XqXqXjXqXqXqXqX0XqXbXqX0XqXqXqX0X0XqXx.w.8 8 8 9 w   ",
"..^ y u w e.t.O.5.p = p p = O O O O O & ( s 0 q.t.8 } #.s #.j.7XqXbXqX0XbXqX8XbX9X0XqXbXbXqXqXqXqXqXqXjXqX9X7X7X;X] y r 3 r 8 o ",
"} ] u r 8 r.u.e 0 0 w *.d O O & & = O & o./ 0 4.=.4.[ [ #.;.^ 5XqXbX0X0XbXmXqXwXbXbXqX0XqXtXqX9XqXqXqXqXqX8X5X;X4X..9 8 8 t r   ",
"] +.] 8 O ;.2Xb.s s -.:Xb.0 = O 4 = 0 e O./ e  .O.q.3.f.{ y v.-X0XqXtX8X;X7XbX7X7X0XqX9X0XqXbXqX0XqXuXqXqXqX5X;XrXj.3 9 r 3 8   ",
"+.{ 9 7 % ;.yX2Xn.$X&X>Xn.( d 0 0 0  .O.O./ e 5 p.O.3.d.e.y.*X$X5X8XbX;X=.$XqX5X9.-XqXbX0XqXqXqX0XqXqX9XqXbXwXrXj.] ^ r o % y r ",
"..i i t   =.>XrX>XOXOXyXb.( *.b.-.b.t.4.( ( e ^ =.#.j.k.9.r.$X*XXXj.w.$.9.x.rXrXc.-XjX9X0XjXbX0XaX0XjXbX0XqXtX5Xy.] 3 o   3 [ 9 ",
") ) 9 9 3 =.u.m.OXoX>X>Xb.( *.b.m.b.5.5.( 6.{ O.#.@.j.x.;.@.y.n.x.} r y w.c.$X7X-X-XqX9X0X8XqX0X0X0X0X9X0XtXqXwX;X+.8 9 % % 8   ",
") 6 3 $ O | m.n.*.5.OXb.*.a *.b.b.*.O.O.e t.=.4.@.O.q./.r.:.j.-Xx.@.[ y { } ..5X$Xj.5XjXjX9X0X0XjXjX0X0XuXtX5X;X:X) * 9 % 9 r o ",
") ) 7.i 3 y u.u.( *.( 5 & a ( b.-.( ( ( e w.3.w.:.o.o.3.9.4.d.&X$X:.#.+...+.] -X7X*X5XbX0X8XqXbXqX0X0XqXqXbXmXbX5X9.} y % 3 8   ",
"Q. X'.O.$Xf.6.5.&.5.( 5 O d ( *. . .d * a =.{ +...[ t / 4.a.z.%Xk.+.c./.} y ] 5X7X*X+Xx.w.XX;X5X7X7XxX7X*X&X;X*XXX$.} { 9 r ] o ",
"B / 1.OX6X^.O.&.( -.*.( a a a -.d d * O s } t s y [ t V 0.l.f./.c.] o.#.^ ^ { x.x.j.w.:...#.:.w.$X$X&Xx.w.$X-XXX$X$.] y 9 8 i % ",
"6 >.3XCXfXQ.2.&.& & d d a = = a d 7 O 9 =. .| } w o.} V o...[ #...V ] r 8 8 } $X*X5X5X>X$Xj.} ..;X;Xr.} :.%X-X*Xv.;.} ] r t ] 8 ",
"2XMXlXgXlXOXA / a = p = O = O 4 p O . | ;.o.} +.3 ....] ..V ] v.e.} y t ] > y *X;XwXwX7X;X$X#.e.k.<Xc.s } } y ) y #.;.} y ) ] 9 ",
"sXkXfXfXfX1X1 5 4.b.m.-.d p = & *   8 j.:.#.} %.i ..#.#.+.$.] ..c.#.+.3.#.#.9.j.9.x.$X*X-X$Xw.w.+.j.e.} +.+.{ ..} v.#.y r [ { 3 ",
"kXdXlXfXT.k < 1 4.b.n.m.m. .p & o $ a.5Xe.) } $.v.} v.rXk.v.;.] w.:.9.p.w.e.w.c.9.w.#.+.9.w.9.q.#.j.#.t [ #.#.#.y 9.p.9.+.} [ w ",
"kXBXiX1X' k k : >.-. .b.p * e + + : `.sX3X@Xh.%.7.#.c.+X=.v.c.c.k.k.c.XXj.d.c.l.[ [ y V 7.y.w.p.w.w.+.t { w.w.+.+.:.y.c.c.j.#.%.",
"8XNX`.,.J.J.m : / 5.= O * 5 5 @ < < 2.).1X3XiX1X+Xh.h.h.c.*Xc.k.j.p.d.p.q.q.w.0...+.o.$.r.j.e.9.w.p.9.#.$.j.$Xy.[ [ e.c.$X$Xd.k.",
"kXkX1.m F.P.b m - e / 0 0 $ + - h k n j E W 8._._.8.~.c.7.#.#.w.w.w.q.9.3.w.w.9.w.w.w.e.w.w.q.q.w.9.:.y % > { #.o 3 @.p.j.j.w.c.",
"mXlX).W ! D.T R L.+ X . X + < , G Q U b R M k C 3X#XQ.%.g.c.w.d.w.w.w.w.w.j.j.9.w.q.w.w.w.e.j.z.w.e.c.j.+.^ y w ^ +.j.$X%X*X%X*X",
"kXlX XS.M.N.N.J K.N . . 2 ; < j K H l J Y Q m M K.#X#X1.!.l.4.q.w.w.w.p.e.q.w.9.p.w.p.j.w.w.w.w.XXj.p.j.j.x.x.j.j.c.d.c.x.x.$Xc.",
"kXlXL.P.D.N.D.N.E ' : @ - 1 m v P H D M.J J T U m ' @X~.8.0.l.p.w.w.r.p.e.p.p.j.j.w.w.j.z.j.j.d.j.x.x.j.z.x.x.z.j./.d.j.d.0.c.p.",
"bXdX).H.D.N.Z.N._ E C ; < j l K Q U b Q J N.M.J U E m _.).W.p.w.y.;.r.r.p.d.p.a.a.l.z.z.c.j.k.k.c.z.z./.x.x.n.XX$Xx./.$X/.$X%X/.",
"qXzXfXY.].N.M.F.Z.m ` j < v v v c z m E J T N.M.J U m E.gX`.i.e.e.t.y.w.w.d.c.^.^.l.x.l.c.j.j.k.c.c.z.z.x.x.+Xx.x.XX$XXX%X-X-XXX",
"nXeXvX,.Q V.J N.Z.! ! ` f f R v b U E.` F.T Z.N.b U h U Y.Q.^.l.r.c.k.v.r.v.j.a.z./.l.c.l.j.z.z.j.z.z.z.x.x.x.+Xx.c.x.c.c.x.$Xc.",
"xXdXcXT.j ! J ! T F.Q ~ R f n R b .XR.K._ }.N.T J T G v g W Q.6.9.j.w.y.x.n.$XXXk.k.l.f.j.l././.z.z.z.x.x.x.x.x.XXj.x.$Xx./.*X-X",
"qXzXVXiX` m U T T ! G.! K b f B.Y.,.E <.E.U.T ! Y z D c K n `.1X(.h.7.d.x.y.y.y.r.u.k.j.l.l.(./.x.z.z.z.x./.x.x.XXc./.$X%X$Xx.e.",
"MXaXpXVX#X' _ j b J V.V.K G U B.B.H.,._.<.E._ T T c l D P v K.vXiX=X=X=X$Xx.y.u.u.u.u.k.j.l.l.^.z.z.c.x./.x.+Xn.x.$X$Xx.x.$X@.% ",
"3XcXcXMXgX_.K.` b D P D.Y G P.U R ,.Q.`.#XA.E G J P F L F c j E.).<.`.@Xa.z.r.u.u.u.u.u.j.l.l.l.z.c.x.x.x./././.c././.x.$X$X9.8 ",
"8.cXzXdXzXvXT.Y.T c L N.N.Y ~ h R Y.2.T.3X#Xb U T D S F L F j m ~ m  X X1./.r.u.u.u.u.u.k.z.x.x.j.c.c.x.x./.x./.oXl.l./.c.v.e.#.",
"1.@XvXzXzXcX@XE Q h v Q V.V.Q n f ~ ).,X,X.X! U T l S L S F K R Q h !  XOXQ.'.p.f.t.y.u.c.c.c.c.l.z.l./.x.^.oXz.l.(.z.d.l.d.e.9.",
"K.Q.zXcXpXpX#X@XH.K v F [.V.z Q g k  X`. X).E U U z x F x x U U b z K S.Y. X,XoX6.z.x.y.y.XXc.v.j.x.z.z.l.l.^.l.^.l.a.d./.l.9.#.",
"E.E.#XcXMXcXVXvXgX.XB.g B.P.g Q K h ~ <.K.L.U R M g g z x S v g l H G n R Y.).Q.,X^.p.c.x.j.y.c.+Xl.w.$.$.>.i.!.^.(.l.a.l.p.:...",
"S.K.<.#XcXcXzXcXCX3XH.m K [.l l Q g k H.E.}.b Q M , , f g l g f l H D S v R ~ K. X@X`.!.h.k.x.c.y.7.V 1 9 q N / >.a.l.a.a.7.$.%.",
"_ _ ' ' #XcXzXpXlX,XA R R P.G c Q G z n }.D.K U < ; ; h g f g h l v v x K l K B.~ E.#X#X(.g.a.l.j...i > 1 q 6 N B 2.>.a.l.a.:...",
"{.F.J.` T.pXcXuXdXdXQ.,.H.P.M.F H Q l f I P P n M 2 : < h h , , g l l g H D H T Y E K.#X#X^.^.(.$.> # + # > > q 1 N / >.(./.>...",
"|.}.}.E.<.@XcXxXeXBXfX1X).P.V.l l Y Y I x M.K v T.' q @ ; < h h g g g g x F F J P Q ! ` L.OX=XoX$.X   X X 2 4 N 5 6 q Z a.(.p.>.",
"].|.R.}.E.T.6XzXjXkXkXsXW R S.G D F N.I S H K b 8.~.8.B ; ; , < , h g v l D D F J P Y ~ ` <._.1X7.+ X # X + + : 1 1 > q >.g.c.g.",
"|.{.{.{..XK.L.MXkXqXbXwX=X`.T.R z x T V.Y D b E 8.8.+X8.X.k ; ; ; h f f g x x D D F P Y Q ! ~ .X).; + +   o     + > 1 > X.g.w.l.",
"R.{.}.R.Y.K.L.1XNXnXaXaXNXcX,X<.U z x N.D.N.E ~ T.8.8.h.@XQ.Z < ; < < < h g g x x H P H M.V.N.Q W - + +       o   # # 2 i ^.j.v.",
"R.R.{.}.I.Y.E.T.3XpXNXsXpXVXNX#XE.Q h b B.P.S.,.+XR.h.8.s.a.Q.T.2.N ; ; h h f g c c x D I J P ! n - @ +           X + # $ e.c.v.",
"R.R.A.{..X}.}.L.Y.gXVXdXzXsXeXNXfX#XE j U ~ ` ,.R.+Xh.h.7.s.g.~.`.Q.2.A M < , h f G z c c c K K C < @ +   o       X X X X ) e.v.",
"S.R.S.~ A.A.U.U.R.E.#XvXVXzXxXzXzXcX3X_.W n W E.8.8.~.h.h.~.h.7.s.s.W.`.,X_.A < , h , l v v H l n h - +   o         X X X $ { c.",
"U R.I.S._ _ ! _ _ A.A._.gXCXxXxXwXzXBXcX#X,.,.).R.+Xh.h.7.7.h.h.i.l.^.s.g.`.`. X,.A h f f f g K j j ; + X           o . o   ] c.",
"c N.}.I.A.A.` _ _ Z._ ` _.iXcXxXmX8X7XlXMXiX#X8.8.8.7.7.h.h.7.8.g.l.a.a.(.(.^.~.1X,XQ.M h n h f h h 2 - X           .     o @.y.",
"F c D.}.R.R.R.R.R.U.F.F.J.T.#XzXxXuXnXsXsXNXxX<Xh.7.7.h.7.7.h.h.i.a.g.l.^.g.(.-X,X=X,X).).).C , < < - - +           . .   8 y.e.",
"L S H D.R.R.R.R.R.{.}.}.E.` ' 8.wXxXzXzXdXaXzXcX6Xc.>.0.a.s.s.^.W.a.l.!.a.l.^.+X@X=X=X@X`._.L.2.M C C 2 X X     .   % s 0 O y.v.",
"L L F G A.R.R.R.{.].J.A.A.` ` K.<.<XVXcXdXzXxXwXxX4X+Xg.s.W.Q.Q.W.!.!.W.a.c.g.j.c.+X%X=X=X=X,X`.,X#X`.Q.2.t %   . s u.r.| $ w 7 ",
"L L S l U A.E.R.R.R.F.F.U.U.U.R.T.,.Q.pXMXzXwXmXxXmXxX;Xi.7.W.~.(.s.s.!.(.a.p.l.h.k.z.(.(.(.%X@X`.`.`.OX+X(.f.O.u s ;.r.t.9 O r ",
"L F F D z U P.I.F.R.J.U.].}.{.R.R.U.` ' `.pXvXzXuXzXMXzX<X@XW.8.~.Q.'.W.!.g.g.l.(.l.z.z.c.p.a.l.a.!.!.W.^.(.^./.9.y u +.w.%   % ",
"S F S S D x G P.U.R.R.U.I.{.].F.F.F.G.U.L.T.,XfXvXcXpXfXcXzX<Xs.8.~.+Xg.g.(.(.a./.(././.l.j.p.j.a.!.l.a.6.6.4.4.w.@.^ / u       ",
"l x x S S S S H B.A.A.U.I.U.F.F.V.F.R.F.S.` Y.).gXcXcXfXdXzXuX5X^.~.~.@X=X=X@X=X(.%X%X(./.^.c.p.q.0.9.i.s.'.a.6.4.6.@.} 7   $   ",
"b f x L S L L x c G U _ Z.Z._ Z.F.F.F.G.A.J.P.H.Y.1XvXVXzXuXuXuX6X@X+X#X<X=X=X1X,X,X,X=X=X%X+X(.$Xj.p.0.6.6.6.>.6.4.0.p.$.9     ",
"z z x I C.L S F x z b M _ _ _ G.F.F.F.G.D.G.P.Y.Y.K.).6XxXuXuXuXcXuX=X!.~.=X,X@X=X=XOX(.oX=X-X%Xc.c.c.l.6.6.6.6.6.>.:.$.#.] o $ "
};
